<svg xmlns="http://www.w3.org/2000/svg" xmlns:oryx="http://oryx-editor.org" id="_7D0EC2D7-09B5-4731-9936-0F087F8A63C9" width="653" height="420.65625" xmlns:xlink="http://www.w3.org/1999/xlink" xmlns:svg="http://www.w3.org/2000/svg"><defs><marker id="_0042A5D4-78B4-4C64-9F5D-506F9C7BED3Cstart" refX="1" refY="5" markerUnits="userSpaceOnUse" markerWidth="17" markerHeight="11" orient="auto" fill="#000000" stroke="#000000"> 	  		<path id="_0042A5D4-78B4-4C64-9F5D-506F9C7BED3Cconditional" d="M 0 5 L 8 0 L 16 5 L 8 10 L 0 5" fill="white" stroke="#000000" stroke-width="1" display="none"/> 			<path id="_0042A5D4-78B4-4C64-9F5D-506F9C7BED3Cdefault" d="M 5 0 L 11 10" fill="white" stroke="#000000" stroke-width="1" display="none"/> 	  	</marker><marker id="_0042A5D4-78B4-4C64-9F5D-506F9C7BED3Cend" refX="15" refY="6" markerUnits="userSpaceOnUse" markerWidth="15" markerHeight="12" orient="auto" fill="#000000" stroke="#000000"> 	  		<path id="_0042A5D4-78B4-4C64-9F5D-506F9C7BED3Cframe2" d="M 0 1 L 15 6 L 0 11z" fill="#000000" stroke="#000000" stroke-linejoin="round" stroke-width="2"/> 	  	</marker><marker id="_CF47117A-2EF1-45C3-B949-8432D7366F63start" refX="1" refY="5" markerUnits="userSpaceOnUse" markerWidth="17" markerHeight="11" orient="auto" fill="#000000" stroke="#000000"> 	  		<path id="_CF47117A-2EF1-45C3-B949-8432D7366F63conditional" d="M 0 5 L 8 0 L 16 5 L 8 10 L 0 5" fill="white" stroke="#000000" stroke-width="1" display="none"/> 			<path id="_CF47117A-2EF1-45C3-B949-8432D7366F63default" d="M 5 0 L 11 10" fill="white" stroke="#000000" stroke-width="1" display="none"/> 	  	</marker><marker id="_CF47117A-2EF1-45C3-B949-8432D7366F63end" refX="15" refY="6" markerUnits="userSpaceOnUse" markerWidth="15" markerHeight="12" orient="auto" fill="#000000" stroke="#000000"> 	  		<path id="_CF47117A-2EF1-45C3-B949-8432D7366F63frame2" d="M 0 1 L 15 6 L 0 11z" fill="#000000" stroke="#000000" stroke-linejoin="round" stroke-width="2"/> 	  	</marker><marker id="_FC4D30B3-50F4-4F50-B5E5-6CDC60A4ED1Astart" refX="1" refY="5" markerUnits="userSpaceOnUse" markerWidth="17" markerHeight="11" orient="auto" fill="#000000" stroke="#000000"> 	  		<path id="_FC4D30B3-50F4-4F50-B5E5-6CDC60A4ED1Aconditional" d="M 0 5 L 8 0 L 16 5 L 8 10 L 0 5" fill="white" stroke="#000000" stroke-width="1" display="none"/> 			<path id="_FC4D30B3-50F4-4F50-B5E5-6CDC60A4ED1Adefault" d="M 5 0 L 11 10" fill="white" stroke="#000000" stroke-width="1" display="none"/> 	  	</marker><marker id="_FC4D30B3-50F4-4F50-B5E5-6CDC60A4ED1Aend" refX="15" refY="6" markerUnits="userSpaceOnUse" markerWidth="15" markerHeight="12" orient="auto" fill="#000000" stroke="#000000"> 	  		<path id="_FC4D30B3-50F4-4F50-B5E5-6CDC60A4ED1Aframe2" d="M 0 1 L 15 6 L 0 11z" fill="#000000" stroke="#000000" stroke-linejoin="round" stroke-width="2"/> 	  	</marker><marker id="_8F79324C-F6DA-4D9D-B3F0-AA65AECD380Cstart" refX="1" refY="5" markerUnits="userSpaceOnUse" markerWidth="17" markerHeight="11" orient="auto" fill="#000000" stroke="#000000"> 	  		<path id="_8F79324C-F6DA-4D9D-B3F0-AA65AECD380Cconditional" d="M 0 5 L 8 0 L 16 5 L 8 10 L 0 5" fill="white" stroke="#000000" stroke-width="1" display="none"/> 			<path id="_8F79324C-F6DA-4D9D-B3F0-AA65AECD380Cdefault" d="M 5 0 L 11 10" fill="white" stroke="#000000" stroke-width="1" display="none"/> 	  	</marker><marker id="_8F79324C-F6DA-4D9D-B3F0-AA65AECD380Cend" refX="15" refY="6" markerUnits="userSpaceOnUse" markerWidth="15" markerHeight="12" orient="auto" fill="#000000" stroke="#000000"> 	  		<path id="_8F79324C-F6DA-4D9D-B3F0-AA65AECD380Cframe2" d="M 0 1 L 15 6 L 0 11z" fill="#000000" stroke="#000000" stroke-linejoin="round" stroke-width="2"/> 	  	</marker></defs><g stroke="none" font-family="Verdana, sans-serif" font-size-adjust="none" font-style="normal" font-variant="normal" font-weight="normal" line-heigth="normal" font-size="12"><g class="stencils" transform="translate(15, 15.65625)"><g class="me"/><g class="children"><g id="_7B14C03E-984F-4CFC-8718-A7006B4F8EEF" bpmn2nodeid="_8CDF1306-82F7-4CF9-B390-8320E41B0635"><g class="stencils" transform="translate(120, 165)"><g class="me"><g pointer-events="fill" id="_7B14C03E-984F-4CFC-8718-A7006B4F8EEF">        <defs id="_7B14C03E-984F-4CFC-8718-A7006B4F8EEF__7B14C03E-984F-4CFC-8718-A7006B4F8EEF_5"> 		<radialGradient id="_7B14C03E-984F-4CFC-8718-A7006B4F8EEFbackground" cx="10%" cy="10%" r="100%" fx="10%" fy="10%"> 			<stop offset="0%" stop-color="#ffffff" stop-opacity="1" id="_7B14C03E-984F-4CFC-8718-A7006B4F8EEF__7B14C03E-984F-4CFC-8718-A7006B4F8EEF_6"/> 			<stop id="_7B14C03E-984F-4CFC-8718-A7006B4F8EEFfill_el" offset="100%" stop-color="#9acd32" stop-opacity="1"/> 		</radialGradient> 	</defs> 	     <circle id="_7B14C03E-984F-4CFC-8718-A7006B4F8EEFbg_frame" cx="15" cy="15" r="15" stroke="#000000" fill="url(#_7B14C03E-984F-4CFC-8718-A7006B4F8EEFbackground) white" stroke-width="1" style="stroke-dasharray: 5.5, 3"/>      <circle id="_7B14C03E-984F-4CFC-8718-A7006B4F8EEFframe" cx="15" cy="15" r="15" stroke="#000000" fill="none" stroke-width="1" display="inherit"/>  	<text font-size="11" id="_7B14C03E-984F-4CFC-8718-A7006B4F8EEFtext_name" x="15" y="32" oryx:align="top center" stroke="black" stroke-width="0pt" letter-spacing="-0.01px" fill="#000000" text-anchor="middle" transform="rotate(0 15 32)" visibility="inherit" oryx:fontSize="11"/>   </g></g><g class="children" style="overflow:hidden"/><g class="edge"/></g><g class="controls"><g class="dockers"/><g class="magnets" transform="translate(120, 165)"><g pointer-events="all" display="none" transform="translate(7, 7)"><circle cx="8" cy="8" r="4" stroke="none" fill="red" fill-opacity="0.3"/></g></g></g></g><g id="_22A7B862-9260-4CFF-A108-5EDC60037312" bpmn2nodeid="_FDEA6B85-BA8D-4837-9452-F2713F9FF6AA"><g class="stencils" transform="translate(195, 140)"><g class="me"><g pointer-events="fill" oryx:minimumSize="50 40" id="_22A7B862-9260-4CFF-A108-5EDC60037312">   	<defs id="_22A7B862-9260-4CFF-A108-5EDC60037312__22A7B862-9260-4CFF-A108-5EDC60037312_17"> 		<radialGradient id="_22A7B862-9260-4CFF-A108-5EDC60037312background" cx="10%" cy="10%" r="100%" fx="10%" fy="10%"> 			<stop offset="0%" stop-color="#ffffff" stop-opacity="1" id="_22A7B862-9260-4CFF-A108-5EDC60037312__22A7B862-9260-4CFF-A108-5EDC60037312_18"/> 			<stop id="_22A7B862-9260-4CFF-A108-5EDC60037312fill_el" offset="100%" stop-color="#fafad2" stop-opacity="1"/> 		</radialGradient> 		<radialGradient id="_22A7B862-9260-4CFF-A108-5EDC60037312borderbackground" cx="10%" cy="10%" r="100%" fx="10%" fy="10%"> 			<stop offset="0%" stop-color="#ffffff" stop-opacity="1" id="_22A7B862-9260-4CFF-A108-5EDC60037312__22A7B862-9260-4CFF-A108-5EDC60037312_19"/> 			<stop id="_22A7B862-9260-4CFF-A108-5EDC60037312fill_border" offset="100%" stop-color="#000000" stop-opacity="1" stroke="#000000"/> 		</radialGradient> 	</defs> 	 	<rect id="_22A7B862-9260-4CFF-A108-5EDC60037312text_frame" oryx:anchors="bottom top right left" x="1" y="1" width="94" height="79" rx="10" ry="10" stroke="none" stroke-width="0" fill="none"/> 	<rect id="_22A7B862-9260-4CFF-A108-5EDC60037312bg_frame" oryx:resize="vertical horizontal" x="0" y="0" width="100" height="80" rx="10" ry="10" stroke="#000000" stroke-width="1" fill="url(#_22A7B862-9260-4CFF-A108-5EDC60037312background) #ffffcc"/> 		<text font-size="12" id="_22A7B862-9260-4CFF-A108-5EDC60037312text_name" x="50" y="40" oryx:align="middle center" oryx:fittoelem="text_frame" stroke="black" text-anchor="middle" stroke-width="0pt" letter-spacing="-0.01px" fill="#000000" transform="rotate(0 50 40)" visibility="inherit" oryx:fontSize="12"><tspan x="50" y="40" dy="5">Gather Info</tspan></text>     <g id="_22A7B862-9260-4CFF-A108-5EDC60037312manualTask" transform="scale(0.7,0.7) translate(8,8)" display="none">     	<path oryx:anchors="top left" id="_22A7B862-9260-4CFF-A108-5EDC60037312frame" style="opacity:1;fill:none;fill-opacity:1;stroke-width:1" d="M0.5,3.751l4.083-3.25c0,0,11.166,0.083,12.083,0.083s-2.417,2.917-1.5,2.917     s11.667,0,12.584,0c1.166,1.708-0.168,3.167-0.834,3.667s0.875,1.917-1,4.417c-0.75,0.25,0.75,1.875-1.333,3.333     c-1.167,0.583,0.583,1.542-1.25,2.833c-1.167,0-20.833,0.083-20.833,0.083l-2-1.333V3.751z" stroke="#000000"/> 		<path id="_22A7B862-9260-4CFF-A108-5EDC60037312frame2" oryx:anchors="top left" style="opacity:1;fill:none;stroke-width:2" d="M 13.5 7 L 27 7" stroke="#000000"/> 		<path id="_22A7B862-9260-4CFF-A108-5EDC60037312frame3" oryx:anchors="top left" style="opacity:1;fill:none;stroke-width:2" d="M 13.5 11 L 26 11" stroke="#000000"/> 		<path id="_22A7B862-9260-4CFF-A108-5EDC60037312frame4" oryx:anchors="top left" style="opacity:1;fill:none;stroke-width:1.5" d="M 14 14.5 L 25 14.5" stroke="#000000"/> 		<path id="_22A7B862-9260-4CFF-A108-5EDC60037312frame5" oryx:anchors="top left" style="opacity:1;fill:none;stroke-width:1.5" d="M 8.2 3.1 L 15 3.1" stroke="#000000"/> 	</g> 	 	<g id="_22A7B862-9260-4CFF-A108-5EDC60037312businessRuleTask" transform="scale(0.7,0.7) translate(8,8)" display="none"> 		<rect id="_22A7B862-9260-4CFF-A108-5EDC60037312frame6" oryx:anchors="top left" x="0" y="0" width="22" height="4" style="opacity:1;fill:#B3B1B3;fill-opacity:1;" stroke="#000000"/> 		<rect id="_22A7B862-9260-4CFF-A108-5EDC60037312frame7" oryx:anchors="top left" x="0" y="4" style="opacity:1;fill:none;" width="22" height="12" stroke="#000000"/> 		<path id="_22A7B862-9260-4CFF-A108-5EDC60037312frame8" oryx:anchors="top left" style="opacity:1;fill:none;" d="M 0 10 L 22 10" stroke="#000000"/> 		<path id="_22A7B862-9260-4CFF-A108-5EDC60037312frame9" oryx:anchors="top left" style="opacity:1; fill:none;" d="M 7 4 L 7 16" stroke="#000000"/> 	</g> 	 	<g id="_22A7B862-9260-4CFF-A108-5EDC60037312scriptTask" transform="scale(0.7,0.7) translate(8,8)" display="none"> 		<path oryx:anchors="top left" id="_22A7B862-9260-4CFF-A108-5EDC60037312frame10" style="opacity:1;fill:none;" stroke="#000000" d="M6.402,0.5h14.5c0,0-5.833,2.833-5.833,5.583s4.417,6,4.417,9.167    s-4.167,5.083-4.167,5.083H0.235c0,0,5-2.667,5-5s-4.583-6.75-4.583-9.25S6.402,0.5,6.402,0.5z"/> 		<path oryx:anchors="top left" id="_22A7B862-9260-4CFF-A108-5EDC60037312frame11" style="opacity:1;fill:none;stroke-width:1.5" d="M 3.5 4.5 L 13.5 4.5" stroke="#000000"/> 		<path oryx:anchors="top left" id="_22A7B862-9260-4CFF-A108-5EDC60037312frame12" style="opacity:1;fill:none;stroke-width:1.5" d="M 3.8 8.5 L 13.8 8.5" stroke="#000000"/> 		<path oryx:anchors="top left" id="_22A7B862-9260-4CFF-A108-5EDC60037312frame13" style="opacity:1;fill:none;stroke-width:1.5" d="M 6.3 12.5 L 16.3 12.5" stroke="#000000"/> 		<path oryx:anchors="top left" id="_22A7B862-9260-4CFF-A108-5EDC60037312frame14" style="opacity:1;fill:none;stroke-width:1.5" d="M 6.5 16.5 L 16.5 16.5" stroke="#000000"/> 	</g> 	 	<g id="_22A7B862-9260-4CFF-A108-5EDC60037312userTask" transform="scale(0.7,0.7) translate(8,8)" display="inherit"> 		<path id="_22A7B862-9260-4CFF-A108-5EDC60037312frame15" oryx:anchors="top left" style="opacity:1;fill:#F4F6F7" stroke="#000000" d="M0.585,24.167h24.083v-7.833c0,0-2.333-3.917-7.083-5.167h-9.25    c-4.417,1.333-7.833,5.75-7.833,5.75L0.585,24.167z"/> 		<path id="_22A7B862-9260-4CFF-A108-5EDC60037312frame16" oryx:anchors="top left" style="opacity:1;fill:none" d="M 6 20 L 6 24" stroke="#000000"/> 		<path id="_22A7B862-9260-4CFF-A108-5EDC60037312frame17" oryx:anchors="top left" style="opacity:1;fill:none" d="M 20 20 L 20 24" stroke="#000000"/> 		<circle id="_22A7B862-9260-4CFF-A108-5EDC60037312frame18" oryx:anchors="top left" fill="black" cx="13.002" cy="5.916" r="5.417" stroke="#000000"/> 		<path id="_22A7B862-9260-4CFF-A108-5EDC60037312frame19" oryx:anchors="top left" style="opacity:1;fill:#F0EFF0;" stroke="#000000" d="M8.043,7.083c0,0,2.814-2.426,5.376-1.807s4.624-0.693,4.624-0.693    c0.25,1.688,0.042,3.75-1.458,5.584c0,0,1.083,0.75,1.083,1.5s0.125,1.875-1,3s-5.5,1.25-6.75,0S8.668,12.834,8.668,12    s0.583-1.25,1.25-1.917C8.835,9.5,7.419,7.708,8.043,7.083z"/> 	</g> 	 	<g id="_22A7B862-9260-4CFF-A108-5EDC60037312serviceTask" transform="scale(0.7,0.7) translate(8,8)" display="none"> 		<polygon oryx:anchors="top left" id="_22A7B862-9260-4CFF-A108-5EDC60037312frame20" style="opacity:1;fill:#ffffff" stroke="#000000" points="15.392,5.064 17.954,2.502 20.347,4.895 17.786,7.455     18.729,9.732 22.353,9.732 22.353,13.115 18.731,13.115 17.788,15.392 20.351,17.955 17.958,20.347 15.397,17.786 13.12,18.729     13.12,22.353 9.737,22.353 9.737,18.731 7.46,17.788 4.897,20.35 2.506,17.958 5.066,15.397 4.124,13.12 0.5,13.12 0.5,9.737     4.121,9.737 5.065,7.461 2.503,4.898 4.895,2.506 7.455,5.066 9.732,4.125 9.732,0.5 13.116,0.5 13.116,4.121 "/> 		<circle oryx:anchors="top left" id="_22A7B862-9260-4CFF-A108-5EDC60037312frame21" style="opacity:1;fill:none" stroke="#000000" cx="11.427" cy="11.426" r="3.714"/> 		<polygon oryx:anchors="top left" id="_22A7B862-9260-4CFF-A108-5EDC60037312frame22" style="opacity:1;fill:#ffffff" stroke="#000000" points="21.392,11.064 23.954,8.502 26.347,10.895 23.786,13.455     24.729,15.732 28.353,15.732 28.353,19.115 24.731,19.115 23.788,21.392 26.351,23.955 23.958,26.347 21.397,23.786 19.12,24.729     19.12,28.353 15.737,28.353 15.737,24.731 13.46,23.788 10.897,26.35 8.506,23.958 11.066,21.397 10.124,19.12 6.5,19.12     6.5,15.737 10.121,15.737 11.065,13.461 8.503,10.898 10.895,8.506 13.455,11.066 15.732,10.125 15.732,6.5 19.116,6.5     19.116,10.121 "/> 		<circle oryx:anchors="top left" id="_22A7B862-9260-4CFF-A108-5EDC60037312frame23" style="opacity:1;fill:none;" stroke="#000000" cx="17.427" cy="17.426" r="3.714"/> 	</g> 	 	<g id="_22A7B862-9260-4CFF-A108-5EDC60037312sendTask" display="none"> 		<path id="_22A7B862-9260-4CFF-A108-5EDC60037312stframe24" oryx:anchors="left top" stroke="#FFFFFF" fill="black" stroke-width="1" d="M8,11 L8,21 L24,21 L24,11 L16,17z"/> 		<path id="_22A7B862-9260-4CFF-A108-5EDC60037312stframe25" oryx:anchors="left top" stroke="#FFFFFF" fill="black" stroke-width="1" d="M7,10 L16,17 L25 10z"/> 	</g> 	 	<g id="_22A7B862-9260-4CFF-A108-5EDC60037312receiveTask" display="none"> 		<path id="_22A7B862-9260-4CFF-A108-5EDC60037312frame26" oryx:anchors="left top" stroke="#000000" fill="none" stroke-width="1" d="M8,11 L8,21 L24,21 L24,11z M8,11 L16,17 L24,11"/> 	</g> 	 	<g id="_22A7B862-9260-4CFF-A108-5EDC60037312none" display="inherit"/>  	<g id="_22A7B862-9260-4CFF-A108-5EDC60037312sequential" display="none">         <path oryx:anchors="bottom" fill="none" stroke="#000000" stroke-width="2" d="M46,76h10M46,72h10 M46,68h10" id="_22A7B862-9260-4CFF-A108-5EDC60037312__22A7B862-9260-4CFF-A108-5EDC60037312_20"/>     </g>   </g></g><g class="children" style="overflow:hidden"/><g class="edge"/></g><g class="controls"><g class="dockers"/><g class="magnets" transform="translate(195, 140)"><g pointer-events="all" display="none" transform="translate(-7, 12)"><circle cx="8" cy="8" r="4" stroke="none" fill="red" fill-opacity="0.3"/></g><g pointer-events="all" display="none" transform="translate(-7, 32)"><circle cx="8" cy="8" r="4" stroke="none" fill="red" fill-opacity="0.3"/></g><g pointer-events="all" display="none" transform="translate(-7, 52)"><circle cx="8" cy="8" r="4" stroke="none" fill="red" fill-opacity="0.3"/></g><g pointer-events="all" display="none" transform="translate(17, 71)"><circle cx="8" cy="8" r="4" stroke="none" fill="red" fill-opacity="0.3"/></g><g pointer-events="all" display="none" transform="translate(42, 71)"><circle cx="8" cy="8" r="4" stroke="none" fill="red" fill-opacity="0.3"/></g><g pointer-events="all" display="none" transform="translate(67, 71)"><circle cx="8" cy="8" r="4" stroke="none" fill="red" fill-opacity="0.3"/></g><g pointer-events="all" display="none" transform="translate(91, 12)"><circle cx="8" cy="8" r="4" stroke="none" fill="red" fill-opacity="0.3"/></g><g pointer-events="all" display="none" transform="translate(91, 32)"><circle cx="8" cy="8" r="4" stroke="none" fill="red" fill-opacity="0.3"/></g><g pointer-events="all" display="none" transform="translate(91, 52)"><circle cx="8" cy="8" r="4" stroke="none" fill="red" fill-opacity="0.3"/></g><g pointer-events="all" display="none" transform="translate(17, -7)"><circle cx="8" cy="8" r="4" stroke="none" fill="red" fill-opacity="0.3"/></g><g pointer-events="all" display="none" transform="translate(42, -7)"><circle cx="8" cy="8" r="4" stroke="none" fill="red" fill-opacity="0.3"/></g><g pointer-events="all" display="none" transform="translate(67, -7)"><circle cx="8" cy="8" r="4" stroke="none" fill="red" fill-opacity="0.3"/></g><g pointer-events="all" display="none" transform="translate(42, 32)"><circle cx="8" cy="8" r="4" stroke="none" fill="red" fill-opacity="0.3"/></g></g></g></g><g id="_CA0A91A1-8F47-4CED-A08D-CE3C6BEC8F41" bpmn2nodeid="_691CC135-8729-4A4E-93CF-F9A113D38667"><g class="stencils" transform="translate(345, 300)"><g class="me"><g pointer-events="fill" oryx:minimumSize="50 40" id="_CA0A91A1-8F47-4CED-A08D-CE3C6BEC8F41">   	<defs id="_CA0A91A1-8F47-4CED-A08D-CE3C6BEC8F41__CA0A91A1-8F47-4CED-A08D-CE3C6BEC8F41_17"> 		<radialGradient id="_CA0A91A1-8F47-4CED-A08D-CE3C6BEC8F41background" cx="10%" cy="10%" r="100%" fx="10%" fy="10%"> 			<stop offset="0%" stop-color="#ffffff" stop-opacity="1" id="_CA0A91A1-8F47-4CED-A08D-CE3C6BEC8F41__CA0A91A1-8F47-4CED-A08D-CE3C6BEC8F41_18"/> 			<stop id="_CA0A91A1-8F47-4CED-A08D-CE3C6BEC8F41fill_el" offset="100%" stop-color="#fafad2" stop-opacity="1"/> 		</radialGradient> 		<radialGradient id="_CA0A91A1-8F47-4CED-A08D-CE3C6BEC8F41borderbackground" cx="10%" cy="10%" r="100%" fx="10%" fy="10%"> 			<stop offset="0%" stop-color="#ffffff" stop-opacity="1" id="_CA0A91A1-8F47-4CED-A08D-CE3C6BEC8F41__CA0A91A1-8F47-4CED-A08D-CE3C6BEC8F41_19"/> 			<stop id="_CA0A91A1-8F47-4CED-A08D-CE3C6BEC8F41fill_border" offset="100%" stop-color="#000000" stop-opacity="1" stroke="#000000"/> 		</radialGradient> 	</defs> 	 	<rect id="_CA0A91A1-8F47-4CED-A08D-CE3C6BEC8F41text_frame" oryx:anchors="bottom top right left" x="1" y="1" width="94" height="79" rx="10" ry="10" stroke="none" stroke-width="0" fill="none"/> 	<rect id="_CA0A91A1-8F47-4CED-A08D-CE3C6BEC8F41bg_frame" oryx:resize="vertical horizontal" x="0" y="0" width="100" height="80" rx="10" ry="10" stroke="#000000" stroke-width="1" fill="url(#_CA0A91A1-8F47-4CED-A08D-CE3C6BEC8F41background) #ffffcc"/> 		<text font-size="12" id="_CA0A91A1-8F47-4CED-A08D-CE3C6BEC8F41text_name" x="50" y="40" oryx:align="middle center" oryx:fittoelem="text_frame" stroke="black" text-anchor="middle" stroke-width="0pt" letter-spacing="-0.01px" fill="#000000" transform="rotate(0 50 40)" visibility="inherit" oryx:fontSize="12"><tspan x="50" y="40" dy="5">Print stuff</tspan></text>     <g id="_CA0A91A1-8F47-4CED-A08D-CE3C6BEC8F41manualTask" transform="scale(0.7,0.7) translate(8,8)" display="none">     	<path oryx:anchors="top left" id="_CA0A91A1-8F47-4CED-A08D-CE3C6BEC8F41frame" style="opacity:1;fill:none;fill-opacity:1;stroke-width:1" d="M0.5,3.751l4.083-3.25c0,0,11.166,0.083,12.083,0.083s-2.417,2.917-1.5,2.917     s11.667,0,12.584,0c1.166,1.708-0.168,3.167-0.834,3.667s0.875,1.917-1,4.417c-0.75,0.25,0.75,1.875-1.333,3.333     c-1.167,0.583,0.583,1.542-1.25,2.833c-1.167,0-20.833,0.083-20.833,0.083l-2-1.333V3.751z" stroke="#000000"/> 		<path id="_CA0A91A1-8F47-4CED-A08D-CE3C6BEC8F41frame2" oryx:anchors="top left" style="opacity:1;fill:none;stroke-width:2" d="M 13.5 7 L 27 7" stroke="#000000"/> 		<path id="_CA0A91A1-8F47-4CED-A08D-CE3C6BEC8F41frame3" oryx:anchors="top left" style="opacity:1;fill:none;stroke-width:2" d="M 13.5 11 L 26 11" stroke="#000000"/> 		<path id="_CA0A91A1-8F47-4CED-A08D-CE3C6BEC8F41frame4" oryx:anchors="top left" style="opacity:1;fill:none;stroke-width:1.5" d="M 14 14.5 L 25 14.5" stroke="#000000"/> 		<path id="_CA0A91A1-8F47-4CED-A08D-CE3C6BEC8F41frame5" oryx:anchors="top left" style="opacity:1;fill:none;stroke-width:1.5" d="M 8.2 3.1 L 15 3.1" stroke="#000000"/> 	</g> 	 	<g id="_CA0A91A1-8F47-4CED-A08D-CE3C6BEC8F41businessRuleTask" transform="scale(0.7,0.7) translate(8,8)" display="none"> 		<rect id="_CA0A91A1-8F47-4CED-A08D-CE3C6BEC8F41frame6" oryx:anchors="top left" x="0" y="0" width="22" height="4" style="opacity:1;fill:#B3B1B3;fill-opacity:1;" stroke="#000000"/> 		<rect id="_CA0A91A1-8F47-4CED-A08D-CE3C6BEC8F41frame7" oryx:anchors="top left" x="0" y="4" style="opacity:1;fill:none;" width="22" height="12" stroke="#000000"/> 		<path id="_CA0A91A1-8F47-4CED-A08D-CE3C6BEC8F41frame8" oryx:anchors="top left" style="opacity:1;fill:none;" d="M 0 10 L 22 10" stroke="#000000"/> 		<path id="_CA0A91A1-8F47-4CED-A08D-CE3C6BEC8F41frame9" oryx:anchors="top left" style="opacity:1; fill:none;" d="M 7 4 L 7 16" stroke="#000000"/> 	</g> 	 	<g id="_CA0A91A1-8F47-4CED-A08D-CE3C6BEC8F41scriptTask" transform="scale(0.7,0.7) translate(8,8)" display="inherit"> 		<path oryx:anchors="top left" id="_CA0A91A1-8F47-4CED-A08D-CE3C6BEC8F41frame10" style="opacity:1;fill:none;" stroke="#000000" d="M6.402,0.5h14.5c0,0-5.833,2.833-5.833,5.583s4.417,6,4.417,9.167    s-4.167,5.083-4.167,5.083H0.235c0,0,5-2.667,5-5s-4.583-6.75-4.583-9.25S6.402,0.5,6.402,0.5z"/> 		<path oryx:anchors="top left" id="_CA0A91A1-8F47-4CED-A08D-CE3C6BEC8F41frame11" style="opacity:1;fill:none;stroke-width:1.5" d="M 3.5 4.5 L 13.5 4.5" stroke="#000000"/> 		<path oryx:anchors="top left" id="_CA0A91A1-8F47-4CED-A08D-CE3C6BEC8F41frame12" style="opacity:1;fill:none;stroke-width:1.5" d="M 3.8 8.5 L 13.8 8.5" stroke="#000000"/> 		<path oryx:anchors="top left" id="_CA0A91A1-8F47-4CED-A08D-CE3C6BEC8F41frame13" style="opacity:1;fill:none;stroke-width:1.5" d="M 6.3 12.5 L 16.3 12.5" stroke="#000000"/> 		<path oryx:anchors="top left" id="_CA0A91A1-8F47-4CED-A08D-CE3C6BEC8F41frame14" style="opacity:1;fill:none;stroke-width:1.5" d="M 6.5 16.5 L 16.5 16.5" stroke="#000000"/> 	</g> 	 	<g id="_CA0A91A1-8F47-4CED-A08D-CE3C6BEC8F41userTask" transform="scale(0.7,0.7) translate(8,8)" display="none"> 		<path id="_CA0A91A1-8F47-4CED-A08D-CE3C6BEC8F41frame15" oryx:anchors="top left" style="opacity:1;fill:#F4F6F7" stroke="#000000" d="M0.585,24.167h24.083v-7.833c0,0-2.333-3.917-7.083-5.167h-9.25    c-4.417,1.333-7.833,5.75-7.833,5.75L0.585,24.167z"/> 		<path id="_CA0A91A1-8F47-4CED-A08D-CE3C6BEC8F41frame16" oryx:anchors="top left" style="opacity:1;fill:none" d="M 6 20 L 6 24" stroke="#000000"/> 		<path id="_CA0A91A1-8F47-4CED-A08D-CE3C6BEC8F41frame17" oryx:anchors="top left" style="opacity:1;fill:none" d="M 20 20 L 20 24" stroke="#000000"/> 		<circle id="_CA0A91A1-8F47-4CED-A08D-CE3C6BEC8F41frame18" oryx:anchors="top left" fill="black" cx="13.002" cy="5.916" r="5.417" stroke="#000000"/> 		<path id="_CA0A91A1-8F47-4CED-A08D-CE3C6BEC8F41frame19" oryx:anchors="top left" style="opacity:1;fill:#F0EFF0;" stroke="#000000" d="M8.043,7.083c0,0,2.814-2.426,5.376-1.807s4.624-0.693,4.624-0.693    c0.25,1.688,0.042,3.75-1.458,5.584c0,0,1.083,0.75,1.083,1.5s0.125,1.875-1,3s-5.5,1.25-6.75,0S8.668,12.834,8.668,12    s0.583-1.25,1.25-1.917C8.835,9.5,7.419,7.708,8.043,7.083z"/> 	</g> 	 	<g id="_CA0A91A1-8F47-4CED-A08D-CE3C6BEC8F41serviceTask" transform="scale(0.7,0.7) translate(8,8)" display="none"> 		<polygon oryx:anchors="top left" id="_CA0A91A1-8F47-4CED-A08D-CE3C6BEC8F41frame20" style="opacity:1;fill:#ffffff" stroke="#000000" points="15.392,5.064 17.954,2.502 20.347,4.895 17.786,7.455     18.729,9.732 22.353,9.732 22.353,13.115 18.731,13.115 17.788,15.392 20.351,17.955 17.958,20.347 15.397,17.786 13.12,18.729     13.12,22.353 9.737,22.353 9.737,18.731 7.46,17.788 4.897,20.35 2.506,17.958 5.066,15.397 4.124,13.12 0.5,13.12 0.5,9.737     4.121,9.737 5.065,7.461 2.503,4.898 4.895,2.506 7.455,5.066 9.732,4.125 9.732,0.5 13.116,0.5 13.116,4.121 "/> 		<circle oryx:anchors="top left" id="_CA0A91A1-8F47-4CED-A08D-CE3C6BEC8F41frame21" style="opacity:1;fill:none" stroke="#000000" cx="11.427" cy="11.426" r="3.714"/> 		<polygon oryx:anchors="top left" id="_CA0A91A1-8F47-4CED-A08D-CE3C6BEC8F41frame22" style="opacity:1;fill:#ffffff" stroke="#000000" points="21.392,11.064 23.954,8.502 26.347,10.895 23.786,13.455     24.729,15.732 28.353,15.732 28.353,19.115 24.731,19.115 23.788,21.392 26.351,23.955 23.958,26.347 21.397,23.786 19.12,24.729     19.12,28.353 15.737,28.353 15.737,24.731 13.46,23.788 10.897,26.35 8.506,23.958 11.066,21.397 10.124,19.12 6.5,19.12     6.5,15.737 10.121,15.737 11.065,13.461 8.503,10.898 10.895,8.506 13.455,11.066 15.732,10.125 15.732,6.5 19.116,6.5     19.116,10.121 "/> 		<circle oryx:anchors="top left" id="_CA0A91A1-8F47-4CED-A08D-CE3C6BEC8F41frame23" style="opacity:1;fill:none;" stroke="#000000" cx="17.427" cy="17.426" r="3.714"/> 	</g> 	 	<g id="_CA0A91A1-8F47-4CED-A08D-CE3C6BEC8F41sendTask" display="none"> 		<path id="_CA0A91A1-8F47-4CED-A08D-CE3C6BEC8F41stframe24" oryx:anchors="left top" stroke="#FFFFFF" fill="black" stroke-width="1" d="M8,11 L8,21 L24,21 L24,11 L16,17z"/> 		<path id="_CA0A91A1-8F47-4CED-A08D-CE3C6BEC8F41stframe25" oryx:anchors="left top" stroke="#FFFFFF" fill="black" stroke-width="1" d="M7,10 L16,17 L25 10z"/> 	</g> 	 	<g id="_CA0A91A1-8F47-4CED-A08D-CE3C6BEC8F41receiveTask" display="none"> 		<path id="_CA0A91A1-8F47-4CED-A08D-CE3C6BEC8F41frame26" oryx:anchors="left top" stroke="#000000" fill="none" stroke-width="1" d="M8,11 L8,21 L24,21 L24,11z M8,11 L16,17 L24,11"/> 	</g> 	 	<g id="_CA0A91A1-8F47-4CED-A08D-CE3C6BEC8F41none" display="inherit"/>  	<g id="_CA0A91A1-8F47-4CED-A08D-CE3C6BEC8F41sequential" display="none">         <path oryx:anchors="bottom" fill="none" stroke="#000000" stroke-width="2" d="M46,76h10M46,72h10 M46,68h10" id="_CA0A91A1-8F47-4CED-A08D-CE3C6BEC8F41__CA0A91A1-8F47-4CED-A08D-CE3C6BEC8F41_20"/>     </g>   </g></g><g class="children" style="overflow:hidden"/><g class="edge"/></g><g class="controls"><g class="dockers"/><g class="magnets" transform="translate(345, 300)"><g pointer-events="all" display="none" transform="translate(-7, 12)"><circle cx="8" cy="8" r="4" stroke="none" fill="red" fill-opacity="0.3"/></g><g pointer-events="all" display="none" transform="translate(-7, 32)"><circle cx="8" cy="8" r="4" stroke="none" fill="red" fill-opacity="0.3"/></g><g pointer-events="all" display="none" transform="translate(-7, 52)"><circle cx="8" cy="8" r="4" stroke="none" fill="red" fill-opacity="0.3"/></g><g pointer-events="all" display="none" transform="translate(17, 71)"><circle cx="8" cy="8" r="4" stroke="none" fill="red" fill-opacity="0.3"/></g><g pointer-events="all" display="none" transform="translate(42, 71)"><circle cx="8" cy="8" r="4" stroke="none" fill="red" fill-opacity="0.3"/></g><g pointer-events="all" display="none" transform="translate(67, 71)"><circle cx="8" cy="8" r="4" stroke="none" fill="red" fill-opacity="0.3"/></g><g pointer-events="all" display="none" transform="translate(91, 12)"><circle cx="8" cy="8" r="4" stroke="none" fill="red" fill-opacity="0.3"/></g><g pointer-events="all" display="none" transform="translate(91, 32)"><circle cx="8" cy="8" r="4" stroke="none" fill="red" fill-opacity="0.3"/></g><g pointer-events="all" display="none" transform="translate(91, 52)"><circle cx="8" cy="8" r="4" stroke="none" fill="red" fill-opacity="0.3"/></g><g pointer-events="all" display="none" transform="translate(17, -7)"><circle cx="8" cy="8" r="4" stroke="none" fill="red" fill-opacity="0.3"/></g><g pointer-events="all" display="none" transform="translate(42, -7)"><circle cx="8" cy="8" r="4" stroke="none" fill="red" fill-opacity="0.3"/></g><g pointer-events="all" display="none" transform="translate(67, -7)"><circle cx="8" cy="8" r="4" stroke="none" fill="red" fill-opacity="0.3"/></g><g pointer-events="all" display="none" transform="translate(42, 32)"><circle cx="8" cy="8" r="4" stroke="none" fill="red" fill-opacity="0.3"/></g></g></g></g><g id="_086E77F2-D33F-4DC6-B0A3-4317957A56C0" bpmn2nodeid="_E95C633C-54B1-4DFC-A9AB-7CF0E1E937E8"><g class="stencils" transform="translate(585, 326)"><g class="me"><g pointer-events="fill" id="_086E77F2-D33F-4DC6-B0A3-4317957A56C0">      <defs id="_086E77F2-D33F-4DC6-B0A3-4317957A56C0__086E77F2-D33F-4DC6-B0A3-4317957A56C0_5"> 		<radialGradient id="_086E77F2-D33F-4DC6-B0A3-4317957A56C0background" cx="10%" cy="10%" r="100%" fx="10%" fy="10%"> 			<stop offset="0%" stop-color="#ffffff" stop-opacity="1" id="_086E77F2-D33F-4DC6-B0A3-4317957A56C0__086E77F2-D33F-4DC6-B0A3-4317957A56C0_6"/> 			<stop id="_086E77F2-D33F-4DC6-B0A3-4317957A56C0fill_el" offset="100%" stop-color="#ff6347" stop-opacity="1"/> 		</radialGradient> 	</defs> 	     <circle id="_086E77F2-D33F-4DC6-B0A3-4317957A56C0bg_frame" cx="14" cy="14" r="14" stroke="#000000" fill="url(#_086E77F2-D33F-4DC6-B0A3-4317957A56C0background) white" stroke-width="3"/> 	<text font-size="11" id="_086E77F2-D33F-4DC6-B0A3-4317957A56C0text_name" x="14" y="30" oryx:align="top center" stroke="black" stroke-width="0pt" letter-spacing="-0.01px" fill="#000000" text-anchor="middle" transform="rotate(0 14 30)" visibility="inherit" oryx:fontSize="11"/>   </g></g><g class="children" style="overflow:hidden"/><g class="edge"/></g><g class="controls"><g class="dockers"/><g class="magnets" transform="translate(585, 326)"><g pointer-events="all" display="none" transform="translate(6, 6)"><circle cx="8" cy="8" r="4" stroke="none" fill="red" fill-opacity="0.3"/></g></g></g></g><g id="_18473BAF-783C-4DD9-B401-2A0910C6A235" bpmn2nodeid="_7CBBCD74-4285-4146-BAA8-8E443DA4B774"><g class="stencils" transform="translate(345, 140)"><g class="me"><g pointer-events="fill" oryx:minimumSize="50 40" id="_18473BAF-783C-4DD9-B401-2A0910C6A235">   	<defs id="_18473BAF-783C-4DD9-B401-2A0910C6A235__18473BAF-783C-4DD9-B401-2A0910C6A235_17"> 		<radialGradient id="_18473BAF-783C-4DD9-B401-2A0910C6A235background" cx="10%" cy="10%" r="100%" fx="10%" fy="10%"> 			<stop offset="0%" stop-color="#ffffff" stop-opacity="1" id="_18473BAF-783C-4DD9-B401-2A0910C6A235__18473BAF-783C-4DD9-B401-2A0910C6A235_18"/> 			<stop id="_18473BAF-783C-4DD9-B401-2A0910C6A235fill_el" offset="100%" stop-color="#fafad2" stop-opacity="1"/> 		</radialGradient> 		<radialGradient id="_18473BAF-783C-4DD9-B401-2A0910C6A235borderbackground" cx="10%" cy="10%" r="100%" fx="10%" fy="10%"> 			<stop offset="0%" stop-color="#ffffff" stop-opacity="1" id="_18473BAF-783C-4DD9-B401-2A0910C6A235__18473BAF-783C-4DD9-B401-2A0910C6A235_19"/> 			<stop id="_18473BAF-783C-4DD9-B401-2A0910C6A235fill_border" offset="100%" stop-color="#000000" stop-opacity="1" stroke="#000000"/> 		</radialGradient> 	</defs> 	 	<rect id="_18473BAF-783C-4DD9-B401-2A0910C6A235text_frame" oryx:anchors="bottom top right left" x="1" y="1" width="94" height="79" rx="10" ry="10" stroke="none" stroke-width="0" fill="none"/> 	<rect id="_18473BAF-783C-4DD9-B401-2A0910C6A235bg_frame" oryx:resize="vertical horizontal" x="0" y="0" width="100" height="80" rx="10" ry="10" stroke="#000000" stroke-width="1" fill="url(#_18473BAF-783C-4DD9-B401-2A0910C6A235background) #ffffcc"/> 		<text font-size="12" id="_18473BAF-783C-4DD9-B401-2A0910C6A235text_name" x="50" y="40" oryx:align="middle center" oryx:fittoelem="text_frame" stroke="black" text-anchor="middle" stroke-width="0pt" letter-spacing="-0.01px" fill="#000000" transform="rotate(0 50 40)" visibility="inherit" oryx:fontSize="12"><tspan x="50" y="40" dy="-1">Gather More </tspan><tspan x="50" y="40" dy="11">Info</tspan></text>     <g id="_18473BAF-783C-4DD9-B401-2A0910C6A235manualTask" transform="scale(0.7,0.7) translate(8,8)" display="none">     	<path oryx:anchors="top left" id="_18473BAF-783C-4DD9-B401-2A0910C6A235frame" style="opacity:1;fill:none;fill-opacity:1;stroke-width:1" d="M0.5,3.751l4.083-3.25c0,0,11.166,0.083,12.083,0.083s-2.417,2.917-1.5,2.917     s11.667,0,12.584,0c1.166,1.708-0.168,3.167-0.834,3.667s0.875,1.917-1,4.417c-0.75,0.25,0.75,1.875-1.333,3.333     c-1.167,0.583,0.583,1.542-1.25,2.833c-1.167,0-20.833,0.083-20.833,0.083l-2-1.333V3.751z" stroke="#000000"/> 		<path id="_18473BAF-783C-4DD9-B401-2A0910C6A235frame2" oryx:anchors="top left" style="opacity:1;fill:none;stroke-width:2" d="M 13.5 7 L 27 7" stroke="#000000"/> 		<path id="_18473BAF-783C-4DD9-B401-2A0910C6A235frame3" oryx:anchors="top left" style="opacity:1;fill:none;stroke-width:2" d="M 13.5 11 L 26 11" stroke="#000000"/> 		<path id="_18473BAF-783C-4DD9-B401-2A0910C6A235frame4" oryx:anchors="top left" style="opacity:1;fill:none;stroke-width:1.5" d="M 14 14.5 L 25 14.5" stroke="#000000"/> 		<path id="_18473BAF-783C-4DD9-B401-2A0910C6A235frame5" oryx:anchors="top left" style="opacity:1;fill:none;stroke-width:1.5" d="M 8.2 3.1 L 15 3.1" stroke="#000000"/> 	</g> 	 	<g id="_18473BAF-783C-4DD9-B401-2A0910C6A235businessRuleTask" transform="scale(0.7,0.7) translate(8,8)" display="none"> 		<rect id="_18473BAF-783C-4DD9-B401-2A0910C6A235frame6" oryx:anchors="top left" x="0" y="0" width="22" height="4" style="opacity:1;fill:#B3B1B3;fill-opacity:1;" stroke="#000000"/> 		<rect id="_18473BAF-783C-4DD9-B401-2A0910C6A235frame7" oryx:anchors="top left" x="0" y="4" style="opacity:1;fill:none;" width="22" height="12" stroke="#000000"/> 		<path id="_18473BAF-783C-4DD9-B401-2A0910C6A235frame8" oryx:anchors="top left" style="opacity:1;fill:none;" d="M 0 10 L 22 10" stroke="#000000"/> 		<path id="_18473BAF-783C-4DD9-B401-2A0910C6A235frame9" oryx:anchors="top left" style="opacity:1; fill:none;" d="M 7 4 L 7 16" stroke="#000000"/> 	</g> 	 	<g id="_18473BAF-783C-4DD9-B401-2A0910C6A235scriptTask" transform="scale(0.7,0.7) translate(8,8)" display="none"> 		<path oryx:anchors="top left" id="_18473BAF-783C-4DD9-B401-2A0910C6A235frame10" style="opacity:1;fill:none;" stroke="#000000" d="M6.402,0.5h14.5c0,0-5.833,2.833-5.833,5.583s4.417,6,4.417,9.167    s-4.167,5.083-4.167,5.083H0.235c0,0,5-2.667,5-5s-4.583-6.75-4.583-9.25S6.402,0.5,6.402,0.5z"/> 		<path oryx:anchors="top left" id="_18473BAF-783C-4DD9-B401-2A0910C6A235frame11" style="opacity:1;fill:none;stroke-width:1.5" d="M 3.5 4.5 L 13.5 4.5" stroke="#000000"/> 		<path oryx:anchors="top left" id="_18473BAF-783C-4DD9-B401-2A0910C6A235frame12" style="opacity:1;fill:none;stroke-width:1.5" d="M 3.8 8.5 L 13.8 8.5" stroke="#000000"/> 		<path oryx:anchors="top left" id="_18473BAF-783C-4DD9-B401-2A0910C6A235frame13" style="opacity:1;fill:none;stroke-width:1.5" d="M 6.3 12.5 L 16.3 12.5" stroke="#000000"/> 		<path oryx:anchors="top left" id="_18473BAF-783C-4DD9-B401-2A0910C6A235frame14" style="opacity:1;fill:none;stroke-width:1.5" d="M 6.5 16.5 L 16.5 16.5" stroke="#000000"/> 	</g> 	 	<g id="_18473BAF-783C-4DD9-B401-2A0910C6A235userTask" transform="scale(0.7,0.7) translate(8,8)" display="inherit"> 		<path id="_18473BAF-783C-4DD9-B401-2A0910C6A235frame15" oryx:anchors="top left" style="opacity:1;fill:#F4F6F7" stroke="#000000" d="M0.585,24.167h24.083v-7.833c0,0-2.333-3.917-7.083-5.167h-9.25    c-4.417,1.333-7.833,5.75-7.833,5.75L0.585,24.167z"/> 		<path id="_18473BAF-783C-4DD9-B401-2A0910C6A235frame16" oryx:anchors="top left" style="opacity:1;fill:none" d="M 6 20 L 6 24" stroke="#000000"/> 		<path id="_18473BAF-783C-4DD9-B401-2A0910C6A235frame17" oryx:anchors="top left" style="opacity:1;fill:none" d="M 20 20 L 20 24" stroke="#000000"/> 		<circle id="_18473BAF-783C-4DD9-B401-2A0910C6A235frame18" oryx:anchors="top left" fill="black" cx="13.002" cy="5.916" r="5.417" stroke="#000000"/> 		<path id="_18473BAF-783C-4DD9-B401-2A0910C6A235frame19" oryx:anchors="top left" style="opacity:1;fill:#F0EFF0;" stroke="#000000" d="M8.043,7.083c0,0,2.814-2.426,5.376-1.807s4.624-0.693,4.624-0.693    c0.25,1.688,0.042,3.75-1.458,5.584c0,0,1.083,0.75,1.083,1.5s0.125,1.875-1,3s-5.5,1.25-6.75,0S8.668,12.834,8.668,12    s0.583-1.25,1.25-1.917C8.835,9.5,7.419,7.708,8.043,7.083z"/> 	</g> 	 	<g id="_18473BAF-783C-4DD9-B401-2A0910C6A235serviceTask" transform="scale(0.7,0.7) translate(8,8)" display="none"> 		<polygon oryx:anchors="top left" id="_18473BAF-783C-4DD9-B401-2A0910C6A235frame20" style="opacity:1;fill:#ffffff" stroke="#000000" points="15.392,5.064 17.954,2.502 20.347,4.895 17.786,7.455     18.729,9.732 22.353,9.732 22.353,13.115 18.731,13.115 17.788,15.392 20.351,17.955 17.958,20.347 15.397,17.786 13.12,18.729     13.12,22.353 9.737,22.353 9.737,18.731 7.46,17.788 4.897,20.35 2.506,17.958 5.066,15.397 4.124,13.12 0.5,13.12 0.5,9.737     4.121,9.737 5.065,7.461 2.503,4.898 4.895,2.506 7.455,5.066 9.732,4.125 9.732,0.5 13.116,0.5 13.116,4.121 "/> 		<circle oryx:anchors="top left" id="_18473BAF-783C-4DD9-B401-2A0910C6A235frame21" style="opacity:1;fill:none" stroke="#000000" cx="11.427" cy="11.426" r="3.714"/> 		<polygon oryx:anchors="top left" id="_18473BAF-783C-4DD9-B401-2A0910C6A235frame22" style="opacity:1;fill:#ffffff" stroke="#000000" points="21.392,11.064 23.954,8.502 26.347,10.895 23.786,13.455     24.729,15.732 28.353,15.732 28.353,19.115 24.731,19.115 23.788,21.392 26.351,23.955 23.958,26.347 21.397,23.786 19.12,24.729     19.12,28.353 15.737,28.353 15.737,24.731 13.46,23.788 10.897,26.35 8.506,23.958 11.066,21.397 10.124,19.12 6.5,19.12     6.5,15.737 10.121,15.737 11.065,13.461 8.503,10.898 10.895,8.506 13.455,11.066 15.732,10.125 15.732,6.5 19.116,6.5     19.116,10.121 "/> 		<circle oryx:anchors="top left" id="_18473BAF-783C-4DD9-B401-2A0910C6A235frame23" style="opacity:1;fill:none;" stroke="#000000" cx="17.427" cy="17.426" r="3.714"/> 	</g> 	 	<g id="_18473BAF-783C-4DD9-B401-2A0910C6A235sendTask" display="none"> 		<path id="_18473BAF-783C-4DD9-B401-2A0910C6A235stframe24" oryx:anchors="left top" stroke="#FFFFFF" fill="black" stroke-width="1" d="M8,11 L8,21 L24,21 L24,11 L16,17z"/> 		<path id="_18473BAF-783C-4DD9-B401-2A0910C6A235stframe25" oryx:anchors="left top" stroke="#FFFFFF" fill="black" stroke-width="1" d="M7,10 L16,17 L25 10z"/> 	</g> 	 	<g id="_18473BAF-783C-4DD9-B401-2A0910C6A235receiveTask" display="none"> 		<path id="_18473BAF-783C-4DD9-B401-2A0910C6A235frame26" oryx:anchors="left top" stroke="#000000" fill="none" stroke-width="1" d="M8,11 L8,21 L24,21 L24,11z M8,11 L16,17 L24,11"/> 	</g> 	 	<g id="_18473BAF-783C-4DD9-B401-2A0910C6A235none" display="inherit"/>  	<g id="_18473BAF-783C-4DD9-B401-2A0910C6A235sequential" display="none">         <path oryx:anchors="bottom" fill="none" stroke="#000000" stroke-width="2" d="M46,76h10M46,72h10 M46,68h10" id="_18473BAF-783C-4DD9-B401-2A0910C6A235__18473BAF-783C-4DD9-B401-2A0910C6A235_20"/>     </g>   </g></g><g class="children" style="overflow:hidden"/><g class="edge"/></g><g class="controls"><g class="dockers"/><g class="magnets" transform="translate(345, 140)"><g pointer-events="all" display="none" transform="translate(-7, 12)"><circle cx="8" cy="8" r="4" stroke="none" fill="red" fill-opacity="0.3"/></g><g pointer-events="all" display="none" transform="translate(-7, 32)"><circle cx="8" cy="8" r="4" stroke="none" fill="red" fill-opacity="0.3"/></g><g pointer-events="all" display="none" transform="translate(-7, 52)"><circle cx="8" cy="8" r="4" stroke="none" fill="red" fill-opacity="0.3"/></g><g pointer-events="all" display="none" transform="translate(17, 71)"><circle cx="8" cy="8" r="4" stroke="none" fill="red" fill-opacity="0.3"/></g><g pointer-events="all" display="none" transform="translate(42, 71)"><circle cx="8" cy="8" r="4" stroke="none" fill="red" fill-opacity="0.3"/></g><g pointer-events="all" display="none" transform="translate(67, 71)"><circle cx="8" cy="8" r="4" stroke="none" fill="red" fill-opacity="0.3"/></g><g pointer-events="all" display="none" transform="translate(91, 12)"><circle cx="8" cy="8" r="4" stroke="none" fill="red" fill-opacity="0.3"/></g><g pointer-events="all" display="none" transform="translate(91, 32)"><circle cx="8" cy="8" r="4" stroke="none" fill="red" fill-opacity="0.3"/></g><g pointer-events="all" display="none" transform="translate(91, 52)"><circle cx="8" cy="8" r="4" stroke="none" fill="red" fill-opacity="0.3"/></g><g pointer-events="all" display="none" transform="translate(17, -7)"><circle cx="8" cy="8" r="4" stroke="none" fill="red" fill-opacity="0.3"/></g><g pointer-events="all" display="none" transform="translate(42, -7)"><circle cx="8" cy="8" r="4" stroke="none" fill="red" fill-opacity="0.3"/></g><g pointer-events="all" display="none" transform="translate(67, -7)"><circle cx="8" cy="8" r="4" stroke="none" fill="red" fill-opacity="0.3"/></g><g pointer-events="all" display="none" transform="translate(42, 32)"><circle cx="8" cy="8" r="4" stroke="none" fill="red" fill-opacity="0.3"/></g></g></g></g></g><g class="edge"><g id="_0042A5D4-78B4-4C64-9F5D-506F9C7BED3C" bpmn2nodeid="_DA217696-BDB2-4192-AFEB-7DA261165D00"><g class="stencils"><g class="me"><g pointer-events="painted" bpmn2nodeid="_06396D7A-A915-4BB1-A8B3-E6AC8EC70353"><path id="_0042A5D4-78B4-4C64-9F5D-506F9C7BED3C_1" d="M150.609375 180L194.15625 180 " stroke="#000000" fill="none" stroke-width="2" stroke-linecap="round" stroke-linejoin="round" marker-start="url(#_0042A5D4-78B4-4C64-9F5D-506F9C7BED3Cstart)" marker-end="url(#_0042A5D4-78B4-4C64-9F5D-506F9C7BED3Cend)"/></g><text id="_0042A5D4-78B4-4C64-9F5D-506F9C7BED3Ctext_name" font-size="12" x="164.609375" y="166" oryx:edgePosition="startTop" stroke-width="0pt" letter-spacing="-0.01px" fill="#000000" text-anchor="start" transform="rotate(360 150.609375 180)" visibility="inherit" oryx:fontSize="12"/></g><g class="children" style="overflow:hidden"/><g class="edge"/></g><g class="controls"><g class="dockers"/><g class="magnets"/></g></g><g id="_CF47117A-2EF1-45C3-B949-8432D7366F63" bpmn2nodeid="_9291B963-A777-4CBF-91EC-B13355F35058"><g class="stencils"><g class="me"><g pointer-events="painted" bpmn2nodeid="_839A5BCF-0B50-43DB-9E87-6C36C51886C1"><path id="_CF47117A-2EF1-45C3-B949-8432D7366F63_1" d="M445.40625 340L584.453125 340 " stroke="#000000" fill="none" stroke-width="2" stroke-linecap="round" stroke-linejoin="round" marker-start="url(#_CF47117A-2EF1-45C3-B949-8432D7366F63start)" marker-end="url(#_CF47117A-2EF1-45C3-B949-8432D7366F63end)"/></g><text id="_CF47117A-2EF1-45C3-B949-8432D7366F63text_name" font-size="12" x="459.40625" y="326" oryx:edgePosition="startTop" stroke-width="0pt" letter-spacing="-0.01px" fill="#000000" text-anchor="start" transform="rotate(360 445.40625 340)" visibility="inherit" oryx:fontSize="12"/></g><g class="children" style="overflow:hidden"/><g class="edge"/></g><g class="controls"><g class="dockers"/><g class="magnets"/></g></g><g id="_FC4D30B3-50F4-4F50-B5E5-6CDC60A4ED1A" bpmn2nodeid="_D3ECF08B-7853-4131-A2B2-D0C1ADF2B17E"><g class="stencils"><g class="me"><g pointer-events="painted" bpmn2nodeid="_2ECAF942-3F07-4D44-B92B-2CD595A34299"><path id="_FC4D30B3-50F4-4F50-B5E5-6CDC60A4ED1A_1" d="M295.21875 180L344.78125 180 " stroke="#000000" fill="none" stroke-width="2" stroke-linecap="round" stroke-linejoin="round" marker-start="url(#_FC4D30B3-50F4-4F50-B5E5-6CDC60A4ED1Astart)" marker-end="url(#_FC4D30B3-50F4-4F50-B5E5-6CDC60A4ED1Aend)"/></g><text id="_FC4D30B3-50F4-4F50-B5E5-6CDC60A4ED1Atext_name" font-size="12" x="309.21875" y="166" oryx:edgePosition="startTop" stroke-width="0pt" letter-spacing="-0.01px" fill="#000000" text-anchor="start" transform="rotate(360 295.21875 180)" visibility="inherit" oryx:fontSize="12"/></g><g class="children" style="overflow:hidden"/><g class="edge"/></g><g class="controls"><g class="dockers"/><g class="magnets"/></g></g><g id="_8F79324C-F6DA-4D9D-B3F0-AA65AECD380C" bpmn2nodeid="_1E467B75-7FB5-4A34-A6DA-74295094A616"><g class="stencils"><g class="me"><g pointer-events="painted" bpmn2nodeid="_A2C12227-3D30-44DE-A52C-87AB79F2A033"><path id="_8F79324C-F6DA-4D9D-B3F0-AA65AECD380C_1" d="M395 221L395 299.625 " stroke="#000000" fill="none" stroke-width="2" stroke-linecap="round" stroke-linejoin="round" marker-start="url(#_8F79324C-F6DA-4D9D-B3F0-AA65AECD380Cstart)" marker-end="url(#_8F79324C-F6DA-4D9D-B3F0-AA65AECD380Cend)"/></g><text id="_8F79324C-F6DA-4D9D-B3F0-AA65AECD380Ctext_name" font-size="12" x="381" y="207" oryx:edgePosition="startTop" stroke-width="0pt" letter-spacing="-0.01px" fill="#000000" text-anchor="end" transform="rotate(-90 395 221)" visibility="inherit" oryx:fontSize="12"/></g><g class="children" style="overflow:hidden"/><g class="edge"/></g><g class="controls"><g class="dockers"/><g class="magnets"/></g></g></g><text id="_64ECF0A5-351B-42F4-8430-99D1D03B11FB" style="stroke-width:1;fill:rgb(177,194,214);font-family:arial;font-weight:bold" font-size="12" onclick="ORYX.Plugins.CanvasTitle.openTextualAnalysis()" onmouseover="ORYX.Plugins.CanvasTitle.addToolTip('_64ECF0A5-351B-42F4-8430-99D1D03B11FB')" transform="translate(10, 20)">HelloWorldWithTwoTasks v.1.0 (com.myspace.extensiondemo.HelloWorldWithTwoTasks)</text></g></g></svg>