<svg xmlns="http://www.w3.org/2000/svg" xmlns:oryx="http://oryx-editor.org" id="_D0980CA2-85C3-4389-8F8A-D52212EB0E8E" width="553" height="260.65625" xmlns:xlink="http://www.w3.org/1999/xlink" xmlns:svg="http://www.w3.org/2000/svg"><defs><marker id="_A2F135EE-1D92-4947-B6E8-0F1192689642start" refX="1" refY="5" markerUnits="userSpaceOnUse" markerWidth="17" markerHeight="11" orient="auto" fill="#000000" stroke="#000000"> 	  		<path id="_A2F135EE-1D92-4947-B6E8-0F1192689642conditional" d="M 0 5 L 8 0 L 16 5 L 8 10 L 0 5" fill="white" stroke="#000000" stroke-width="1" display="none"/> 			<path id="_A2F135EE-1D92-4947-B6E8-0F1192689642default" d="M 5 0 L 11 10" fill="white" stroke="#000000" stroke-width="1" display="none"/> 	  	</marker><marker id="_A2F135EE-1D92-4947-B6E8-0F1192689642end" refX="15" refY="6" markerUnits="userSpaceOnUse" markerWidth="15" markerHeight="12" orient="auto" fill="#000000" stroke="#000000"> 	  		<path id="_A2F135EE-1D92-4947-B6E8-0F1192689642frame2" d="M 0 1 L 15 6 L 0 11z" fill="#000000" stroke="#000000" stroke-linejoin="round" stroke-width="2"/> 	  	</marker><marker id="_B52DB95D-3F59-4F1A-9F87-A25AE6B78EE3start" refX="1" refY="5" markerUnits="userSpaceOnUse" markerWidth="17" markerHeight="11" orient="auto" fill="#000000" stroke="#000000"> 	  		<path id="_B52DB95D-3F59-4F1A-9F87-A25AE6B78EE3conditional" d="M 0 5 L 8 0 L 16 5 L 8 10 L 0 5" fill="white" stroke="#000000" stroke-width="1" display="none"/> 			<path id="_B52DB95D-3F59-4F1A-9F87-A25AE6B78EE3default" d="M 5 0 L 11 10" fill="white" stroke="#000000" stroke-width="1" display="none"/> 	  	</marker><marker id="_B52DB95D-3F59-4F1A-9F87-A25AE6B78EE3end" refX="15" refY="6" markerUnits="userSpaceOnUse" markerWidth="15" markerHeight="12" orient="auto" fill="#000000" stroke="#000000"> 	  		<path id="_B52DB95D-3F59-4F1A-9F87-A25AE6B78EE3frame2" d="M 0 1 L 15 6 L 0 11z" fill="#000000" stroke="#000000" stroke-linejoin="round" stroke-width="2"/> 	  	</marker><marker id="_07140D21-267C-413E-841C-68DFC42B064Dstart" refX="1" refY="5" markerUnits="userSpaceOnUse" markerWidth="17" markerHeight="11" orient="auto" fill="#000000" stroke="#000000"> 	  		<path id="_07140D21-267C-413E-841C-68DFC42B064Dconditional" d="M 0 5 L 8 0 L 16 5 L 8 10 L 0 5" fill="white" stroke="#000000" stroke-width="1" display="none"/> 			<path id="_07140D21-267C-413E-841C-68DFC42B064Ddefault" d="M 5 0 L 11 10" fill="white" stroke="#000000" stroke-width="1" display="none"/> 	  	</marker><marker id="_07140D21-267C-413E-841C-68DFC42B064Dend" refX="15" refY="6" markerUnits="userSpaceOnUse" markerWidth="15" markerHeight="12" orient="auto" fill="#000000" stroke="#000000"> 	  		<path id="_07140D21-267C-413E-841C-68DFC42B064Dframe2" d="M 0 1 L 15 6 L 0 11z" fill="#000000" stroke="#000000" stroke-linejoin="round" stroke-width="2"/> 	  	</marker></defs><g stroke="none" font-family="Verdana, sans-serif" font-size-adjust="none" font-style="normal" font-variant="normal" font-weight="normal" line-heigth="normal" font-size="12"><g class="stencils" transform="translate(15, 15.65625)"><g class="me"/><g class="children"><g id="_7A95D643-6B99-42DE-8616-862889EAAF3D" bpmn2nodeid="_CE1C2360-9CDC-4D86-9FB5-F3BD8B1A5034"><g class="stencils" transform="translate(120, 165)"><g class="me"><g pointer-events="fill" id="_7A95D643-6B99-42DE-8616-862889EAAF3D">        <defs id="_7A95D643-6B99-42DE-8616-862889EAAF3D__7A95D643-6B99-42DE-8616-862889EAAF3D_5"> 		<radialGradient id="_7A95D643-6B99-42DE-8616-862889EAAF3Dbackground" cx="10%" cy="10%" r="100%" fx="10%" fy="10%"> 			<stop offset="0%" stop-color="#ffffff" stop-opacity="1" id="_7A95D643-6B99-42DE-8616-862889EAAF3D__7A95D643-6B99-42DE-8616-862889EAAF3D_6"/> 			<stop id="_7A95D643-6B99-42DE-8616-862889EAAF3Dfill_el" offset="100%" stop-color="#9acd32" stop-opacity="1"/> 		</radialGradient> 	</defs> 	     <circle id="_7A95D643-6B99-42DE-8616-862889EAAF3Dbg_frame" cx="15" cy="15" r="15" stroke="#000000" fill="url(#_7A95D643-6B99-42DE-8616-862889EAAF3Dbackground) white" stroke-width="1" style="stroke-dasharray: 5.5, 3"/>      <circle id="_7A95D643-6B99-42DE-8616-862889EAAF3Dframe" cx="15" cy="15" r="15" stroke="#000000" fill="none" stroke-width="1" display="inherit"/>  	<text font-size="11" id="_7A95D643-6B99-42DE-8616-862889EAAF3Dtext_name" x="15" y="32" oryx:align="top center" stroke="black" stroke-width="0pt" letter-spacing="-0.01px" fill="#000000" text-anchor="middle" transform="rotate(0 15 32)" visibility="inherit" oryx:fontSize="11"/>   </g></g><g class="children" style="overflow:hidden"/><g class="edge"/></g><g class="controls"><g class="dockers"/><g class="magnets" transform="translate(120, 165)"><g pointer-events="all" display="none" transform="translate(7, 7)"><circle cx="8" cy="8" r="4" stroke="none" fill="red" fill-opacity="0.3"/></g></g></g></g><g id="_5CA647CE-A440-4D6A-B234-BC6C45084D17" bpmn2nodeid="_F399A84A-59EC-4E33-BF60-F08731283517"><g class="stencils" transform="translate(195, 140)"><g class="me"><g pointer-events="fill" oryx:minimumSize="50 40" id="_5CA647CE-A440-4D6A-B234-BC6C45084D17">   	<defs id="_5CA647CE-A440-4D6A-B234-BC6C45084D17__5CA647CE-A440-4D6A-B234-BC6C45084D17_17"> 		<radialGradient id="_5CA647CE-A440-4D6A-B234-BC6C45084D17background" cx="10%" cy="10%" r="100%" fx="10%" fy="10%"> 			<stop offset="0%" stop-color="#ffffff" stop-opacity="1" id="_5CA647CE-A440-4D6A-B234-BC6C45084D17__5CA647CE-A440-4D6A-B234-BC6C45084D17_18"/> 			<stop id="_5CA647CE-A440-4D6A-B234-BC6C45084D17fill_el" offset="100%" stop-color="#fafad2" stop-opacity="1"/> 		</radialGradient> 		<radialGradient id="_5CA647CE-A440-4D6A-B234-BC6C45084D17borderbackground" cx="10%" cy="10%" r="100%" fx="10%" fy="10%"> 			<stop offset="0%" stop-color="#ffffff" stop-opacity="1" id="_5CA647CE-A440-4D6A-B234-BC6C45084D17__5CA647CE-A440-4D6A-B234-BC6C45084D17_19"/> 			<stop id="_5CA647CE-A440-4D6A-B234-BC6C45084D17fill_border" offset="100%" stop-color="#000000" stop-opacity="1" stroke="#000000"/> 		</radialGradient> 	</defs> 	 	<rect id="_5CA647CE-A440-4D6A-B234-BC6C45084D17text_frame" oryx:anchors="bottom top right left" x="1" y="1" width="94" height="79" rx="10" ry="10" stroke="none" stroke-width="0" fill="none"/> 	<rect id="_5CA647CE-A440-4D6A-B234-BC6C45084D17bg_frame" oryx:resize="vertical horizontal" x="0" y="0" width="100" height="80" rx="10" ry="10" stroke="#000000" stroke-width="1" fill="url(#_5CA647CE-A440-4D6A-B234-BC6C45084D17background) #ffffcc"/> 		<text font-size="12" id="_5CA647CE-A440-4D6A-B234-BC6C45084D17text_name" x="50" y="40" oryx:align="middle center" oryx:fittoelem="text_frame" stroke="black" text-anchor="middle" stroke-width="0pt" letter-spacing="-0.01px" fill="#000000" transform="rotate(0 50 40)" visibility="inherit" oryx:fontSize="12"><tspan x="50" y="40" dy="5">            Gather Info</tspan></text>     <g id="_5CA647CE-A440-4D6A-B234-BC6C45084D17manualTask" transform="scale(0.7,0.7) translate(8,8)" display="none">     	<path oryx:anchors="top left" id="_5CA647CE-A440-4D6A-B234-BC6C45084D17frame" style="opacity:1;fill:none;fill-opacity:1;stroke-width:1" d="M0.5,3.751l4.083-3.25c0,0,11.166,0.083,12.083,0.083s-2.417,2.917-1.5,2.917     s11.667,0,12.584,0c1.166,1.708-0.168,3.167-0.834,3.667s0.875,1.917-1,4.417c-0.75,0.25,0.75,1.875-1.333,3.333     c-1.167,0.583,0.583,1.542-1.25,2.833c-1.167,0-20.833,0.083-20.833,0.083l-2-1.333V3.751z" stroke="#000000"/> 		<path id="_5CA647CE-A440-4D6A-B234-BC6C45084D17frame2" oryx:anchors="top left" style="opacity:1;fill:none;stroke-width:2" d="M 13.5 7 L 27 7" stroke="#000000"/> 		<path id="_5CA647CE-A440-4D6A-B234-BC6C45084D17frame3" oryx:anchors="top left" style="opacity:1;fill:none;stroke-width:2" d="M 13.5 11 L 26 11" stroke="#000000"/> 		<path id="_5CA647CE-A440-4D6A-B234-BC6C45084D17frame4" oryx:anchors="top left" style="opacity:1;fill:none;stroke-width:1.5" d="M 14 14.5 L 25 14.5" stroke="#000000"/> 		<path id="_5CA647CE-A440-4D6A-B234-BC6C45084D17frame5" oryx:anchors="top left" style="opacity:1;fill:none;stroke-width:1.5" d="M 8.2 3.1 L 15 3.1" stroke="#000000"/> 	</g> 	 	<g id="_5CA647CE-A440-4D6A-B234-BC6C45084D17businessRuleTask" transform="scale(0.7,0.7) translate(8,8)" display="none"> 		<rect id="_5CA647CE-A440-4D6A-B234-BC6C45084D17frame6" oryx:anchors="top left" x="0" y="0" width="22" height="4" style="opacity:1;fill:#B3B1B3;fill-opacity:1;" stroke="#000000"/> 		<rect id="_5CA647CE-A440-4D6A-B234-BC6C45084D17frame7" oryx:anchors="top left" x="0" y="4" style="opacity:1;fill:none;" width="22" height="12" stroke="#000000"/> 		<path id="_5CA647CE-A440-4D6A-B234-BC6C45084D17frame8" oryx:anchors="top left" style="opacity:1;fill:none;" d="M 0 10 L 22 10" stroke="#000000"/> 		<path id="_5CA647CE-A440-4D6A-B234-BC6C45084D17frame9" oryx:anchors="top left" style="opacity:1; fill:none;" d="M 7 4 L 7 16" stroke="#000000"/> 	</g> 	 	<g id="_5CA647CE-A440-4D6A-B234-BC6C45084D17scriptTask" transform="scale(0.7,0.7) translate(8,8)" display="none"> 		<path oryx:anchors="top left" id="_5CA647CE-A440-4D6A-B234-BC6C45084D17frame10" style="opacity:1;fill:none;" stroke="#000000" d="M6.402,0.5h14.5c0,0-5.833,2.833-5.833,5.583s4.417,6,4.417,9.167    s-4.167,5.083-4.167,5.083H0.235c0,0,5-2.667,5-5s-4.583-6.75-4.583-9.25S6.402,0.5,6.402,0.5z"/> 		<path oryx:anchors="top left" id="_5CA647CE-A440-4D6A-B234-BC6C45084D17frame11" style="opacity:1;fill:none;stroke-width:1.5" d="M 3.5 4.5 L 13.5 4.5" stroke="#000000"/> 		<path oryx:anchors="top left" id="_5CA647CE-A440-4D6A-B234-BC6C45084D17frame12" style="opacity:1;fill:none;stroke-width:1.5" d="M 3.8 8.5 L 13.8 8.5" stroke="#000000"/> 		<path oryx:anchors="top left" id="_5CA647CE-A440-4D6A-B234-BC6C45084D17frame13" style="opacity:1;fill:none;stroke-width:1.5" d="M 6.3 12.5 L 16.3 12.5" stroke="#000000"/> 		<path oryx:anchors="top left" id="_5CA647CE-A440-4D6A-B234-BC6C45084D17frame14" style="opacity:1;fill:none;stroke-width:1.5" d="M 6.5 16.5 L 16.5 16.5" stroke="#000000"/> 	</g> 	 	<g id="_5CA647CE-A440-4D6A-B234-BC6C45084D17userTask" transform="scale(0.7,0.7) translate(8,8)" display="inherit"> 		<path id="_5CA647CE-A440-4D6A-B234-BC6C45084D17frame15" oryx:anchors="top left" style="opacity:1;fill:#F4F6F7" stroke="#000000" d="M0.585,24.167h24.083v-7.833c0,0-2.333-3.917-7.083-5.167h-9.25    c-4.417,1.333-7.833,5.75-7.833,5.75L0.585,24.167z"/> 		<path id="_5CA647CE-A440-4D6A-B234-BC6C45084D17frame16" oryx:anchors="top left" style="opacity:1;fill:none" d="M 6 20 L 6 24" stroke="#000000"/> 		<path id="_5CA647CE-A440-4D6A-B234-BC6C45084D17frame17" oryx:anchors="top left" style="opacity:1;fill:none" d="M 20 20 L 20 24" stroke="#000000"/> 		<circle id="_5CA647CE-A440-4D6A-B234-BC6C45084D17frame18" oryx:anchors="top left" fill="black" cx="13.002" cy="5.916" r="5.417" stroke="#000000"/> 		<path id="_5CA647CE-A440-4D6A-B234-BC6C45084D17frame19" oryx:anchors="top left" style="opacity:1;fill:#F0EFF0;" stroke="#000000" d="M8.043,7.083c0,0,2.814-2.426,5.376-1.807s4.624-0.693,4.624-0.693    c0.25,1.688,0.042,3.75-1.458,5.584c0,0,1.083,0.75,1.083,1.5s0.125,1.875-1,3s-5.5,1.25-6.75,0S8.668,12.834,8.668,12    s0.583-1.25,1.25-1.917C8.835,9.5,7.419,7.708,8.043,7.083z"/> 	</g> 	 	<g id="_5CA647CE-A440-4D6A-B234-BC6C45084D17serviceTask" transform="scale(0.7,0.7) translate(8,8)" display="none"> 		<polygon oryx:anchors="top left" id="_5CA647CE-A440-4D6A-B234-BC6C45084D17frame20" style="opacity:1;fill:#ffffff" stroke="#000000" points="15.392,5.064 17.954,2.502 20.347,4.895 17.786,7.455     18.729,9.732 22.353,9.732 22.353,13.115 18.731,13.115 17.788,15.392 20.351,17.955 17.958,20.347 15.397,17.786 13.12,18.729     13.12,22.353 9.737,22.353 9.737,18.731 7.46,17.788 4.897,20.35 2.506,17.958 5.066,15.397 4.124,13.12 0.5,13.12 0.5,9.737     4.121,9.737 5.065,7.461 2.503,4.898 4.895,2.506 7.455,5.066 9.732,4.125 9.732,0.5 13.116,0.5 13.116,4.121 "/> 		<circle oryx:anchors="top left" id="_5CA647CE-A440-4D6A-B234-BC6C45084D17frame21" style="opacity:1;fill:none" stroke="#000000" cx="11.427" cy="11.426" r="3.714"/> 		<polygon oryx:anchors="top left" id="_5CA647CE-A440-4D6A-B234-BC6C45084D17frame22" style="opacity:1;fill:#ffffff" stroke="#000000" points="21.392,11.064 23.954,8.502 26.347,10.895 23.786,13.455     24.729,15.732 28.353,15.732 28.353,19.115 24.731,19.115 23.788,21.392 26.351,23.955 23.958,26.347 21.397,23.786 19.12,24.729     19.12,28.353 15.737,28.353 15.737,24.731 13.46,23.788 10.897,26.35 8.506,23.958 11.066,21.397 10.124,19.12 6.5,19.12     6.5,15.737 10.121,15.737 11.065,13.461 8.503,10.898 10.895,8.506 13.455,11.066 15.732,10.125 15.732,6.5 19.116,6.5     19.116,10.121 "/> 		<circle oryx:anchors="top left" id="_5CA647CE-A440-4D6A-B234-BC6C45084D17frame23" style="opacity:1;fill:none;" stroke="#000000" cx="17.427" cy="17.426" r="3.714"/> 	</g> 	 	<g id="_5CA647CE-A440-4D6A-B234-BC6C45084D17sendTask" display="none"> 		<path id="_5CA647CE-A440-4D6A-B234-BC6C45084D17stframe24" oryx:anchors="left top" stroke="#FFFFFF" fill="black" stroke-width="1" d="M8,11 L8,21 L24,21 L24,11 L16,17z"/> 		<path id="_5CA647CE-A440-4D6A-B234-BC6C45084D17stframe25" oryx:anchors="left top" stroke="#FFFFFF" fill="black" stroke-width="1" d="M7,10 L16,17 L25 10z"/> 	</g> 	 	<g id="_5CA647CE-A440-4D6A-B234-BC6C45084D17receiveTask" display="none"> 		<path id="_5CA647CE-A440-4D6A-B234-BC6C45084D17frame26" oryx:anchors="left top" stroke="#000000" fill="none" stroke-width="1" d="M8,11 L8,21 L24,21 L24,11z M8,11 L16,17 L24,11"/> 	</g> 	 	<g id="_5CA647CE-A440-4D6A-B234-BC6C45084D17none" display="inherit"/>  	<g id="_5CA647CE-A440-4D6A-B234-BC6C45084D17sequential" display="none">         <path oryx:anchors="bottom" fill="none" stroke="#000000" stroke-width="2" d="M46,76h10M46,72h10 M46,68h10" id="_5CA647CE-A440-4D6A-B234-BC6C45084D17__5CA647CE-A440-4D6A-B234-BC6C45084D17_20"/>     </g>   </g></g><g class="children" style="overflow:hidden"/><g class="edge"/></g><g class="controls"><g class="dockers"/><g class="magnets" transform="translate(195, 140)"><g pointer-events="all" display="none" transform="translate(-7, 12)"><circle cx="8" cy="8" r="4" stroke="none" fill="red" fill-opacity="0.3"/></g><g pointer-events="all" display="none" transform="translate(-7, 32)"><circle cx="8" cy="8" r="4" stroke="none" fill="red" fill-opacity="0.3"/></g><g pointer-events="all" display="none" transform="translate(-7, 52)"><circle cx="8" cy="8" r="4" stroke="none" fill="red" fill-opacity="0.3"/></g><g pointer-events="all" display="none" transform="translate(17, 71)"><circle cx="8" cy="8" r="4" stroke="none" fill="red" fill-opacity="0.3"/></g><g pointer-events="all" display="none" transform="translate(42, 71)"><circle cx="8" cy="8" r="4" stroke="none" fill="red" fill-opacity="0.3"/></g><g pointer-events="all" display="none" transform="translate(67, 71)"><circle cx="8" cy="8" r="4" stroke="none" fill="red" fill-opacity="0.3"/></g><g pointer-events="all" display="none" transform="translate(91, 12)"><circle cx="8" cy="8" r="4" stroke="none" fill="red" fill-opacity="0.3"/></g><g pointer-events="all" display="none" transform="translate(91, 32)"><circle cx="8" cy="8" r="4" stroke="none" fill="red" fill-opacity="0.3"/></g><g pointer-events="all" display="none" transform="translate(91, 52)"><circle cx="8" cy="8" r="4" stroke="none" fill="red" fill-opacity="0.3"/></g><g pointer-events="all" display="none" transform="translate(17, -7)"><circle cx="8" cy="8" r="4" stroke="none" fill="red" fill-opacity="0.3"/></g><g pointer-events="all" display="none" transform="translate(42, -7)"><circle cx="8" cy="8" r="4" stroke="none" fill="red" fill-opacity="0.3"/></g><g pointer-events="all" display="none" transform="translate(67, -7)"><circle cx="8" cy="8" r="4" stroke="none" fill="red" fill-opacity="0.3"/></g><g pointer-events="all" display="none" transform="translate(42, 32)"><circle cx="8" cy="8" r="4" stroke="none" fill="red" fill-opacity="0.3"/></g></g></g></g><g id="_33988015-3F03-4144-86D2-BF522492F9B2" bpmn2nodeid="_4204A934-777B-4057-918F-86CE7C6ACDAB"><g class="stencils" transform="translate(340, 140)"><g class="me"><g pointer-events="fill" oryx:minimumSize="50 40" id="_33988015-3F03-4144-86D2-BF522492F9B2">   	<defs id="_33988015-3F03-4144-86D2-BF522492F9B2__33988015-3F03-4144-86D2-BF522492F9B2_17"> 		<radialGradient id="_33988015-3F03-4144-86D2-BF522492F9B2background" cx="10%" cy="10%" r="100%" fx="10%" fy="10%"> 			<stop offset="0%" stop-color="#ffffff" stop-opacity="1" id="_33988015-3F03-4144-86D2-BF522492F9B2__33988015-3F03-4144-86D2-BF522492F9B2_18"/> 			<stop id="_33988015-3F03-4144-86D2-BF522492F9B2fill_el" offset="100%" stop-color="#fafad2" stop-opacity="1"/> 		</radialGradient> 		<radialGradient id="_33988015-3F03-4144-86D2-BF522492F9B2borderbackground" cx="10%" cy="10%" r="100%" fx="10%" fy="10%"> 			<stop offset="0%" stop-color="#ffffff" stop-opacity="1" id="_33988015-3F03-4144-86D2-BF522492F9B2__33988015-3F03-4144-86D2-BF522492F9B2_19"/> 			<stop id="_33988015-3F03-4144-86D2-BF522492F9B2fill_border" offset="100%" stop-color="#000000" stop-opacity="1" stroke="#000000"/> 		</radialGradient> 	</defs> 	 	<rect id="_33988015-3F03-4144-86D2-BF522492F9B2text_frame" oryx:anchors="bottom top right left" x="1" y="1" width="94" height="79" rx="10" ry="10" stroke="none" stroke-width="0" fill="none"/> 	<rect id="_33988015-3F03-4144-86D2-BF522492F9B2bg_frame" oryx:resize="vertical horizontal" x="0" y="0" width="100" height="80" rx="10" ry="10" stroke="#000000" stroke-width="1" fill="url(#_33988015-3F03-4144-86D2-BF522492F9B2background) #ffffcc"/> 		<text font-size="12" id="_33988015-3F03-4144-86D2-BF522492F9B2text_name" x="50" y="40" oryx:align="middle center" oryx:fittoelem="text_frame" stroke="black" text-anchor="middle" stroke-width="0pt" letter-spacing="-0.01px" fill="#000000" transform="rotate(0 50 40)" visibility="inherit" oryx:fontSize="12"><tspan x="50" y="40" dy="5" id="ext-gen858">            Throw Error</tspan></text>     <g id="_33988015-3F03-4144-86D2-BF522492F9B2manualTask" transform="scale(0.7,0.7) translate(8,8)" display="none">     	<path oryx:anchors="top left" id="_33988015-3F03-4144-86D2-BF522492F9B2frame" style="opacity:1;fill:none;fill-opacity:1;stroke-width:1" d="M0.5,3.751l4.083-3.25c0,0,11.166,0.083,12.083,0.083s-2.417,2.917-1.5,2.917     s11.667,0,12.584,0c1.166,1.708-0.168,3.167-0.834,3.667s0.875,1.917-1,4.417c-0.75,0.25,0.75,1.875-1.333,3.333     c-1.167,0.583,0.583,1.542-1.25,2.833c-1.167,0-20.833,0.083-20.833,0.083l-2-1.333V3.751z" stroke="#000000"/> 		<path id="_33988015-3F03-4144-86D2-BF522492F9B2frame2" oryx:anchors="top left" style="opacity:1;fill:none;stroke-width:2" d="M 13.5 7 L 27 7" stroke="#000000"/> 		<path id="_33988015-3F03-4144-86D2-BF522492F9B2frame3" oryx:anchors="top left" style="opacity:1;fill:none;stroke-width:2" d="M 13.5 11 L 26 11" stroke="#000000"/> 		<path id="_33988015-3F03-4144-86D2-BF522492F9B2frame4" oryx:anchors="top left" style="opacity:1;fill:none;stroke-width:1.5" d="M 14 14.5 L 25 14.5" stroke="#000000"/> 		<path id="_33988015-3F03-4144-86D2-BF522492F9B2frame5" oryx:anchors="top left" style="opacity:1;fill:none;stroke-width:1.5" d="M 8.2 3.1 L 15 3.1" stroke="#000000"/> 	</g> 	 	<g id="_33988015-3F03-4144-86D2-BF522492F9B2businessRuleTask" transform="scale(0.7,0.7) translate(8,8)" display="none"> 		<rect id="_33988015-3F03-4144-86D2-BF522492F9B2frame6" oryx:anchors="top left" x="0" y="0" width="22" height="4" style="opacity:1;fill:#B3B1B3;fill-opacity:1;" stroke="#000000"/> 		<rect id="_33988015-3F03-4144-86D2-BF522492F9B2frame7" oryx:anchors="top left" x="0" y="4" style="opacity:1;fill:none;" width="22" height="12" stroke="#000000"/> 		<path id="_33988015-3F03-4144-86D2-BF522492F9B2frame8" oryx:anchors="top left" style="opacity:1;fill:none;" d="M 0 10 L 22 10" stroke="#000000"/> 		<path id="_33988015-3F03-4144-86D2-BF522492F9B2frame9" oryx:anchors="top left" style="opacity:1; fill:none;" d="M 7 4 L 7 16" stroke="#000000"/> 	</g> 	 	<g id="_33988015-3F03-4144-86D2-BF522492F9B2scriptTask" transform="scale(0.7,0.7) translate(8,8)" display="inherit"> 		<path oryx:anchors="top left" id="_33988015-3F03-4144-86D2-BF522492F9B2frame10" style="opacity:1;fill:none;" stroke="#000000" d="M6.402,0.5h14.5c0,0-5.833,2.833-5.833,5.583s4.417,6,4.417,9.167    s-4.167,5.083-4.167,5.083H0.235c0,0,5-2.667,5-5s-4.583-6.75-4.583-9.25S6.402,0.5,6.402,0.5z"/> 		<path oryx:anchors="top left" id="_33988015-3F03-4144-86D2-BF522492F9B2frame11" style="opacity:1;fill:none;stroke-width:1.5" d="M 3.5 4.5 L 13.5 4.5" stroke="#000000"/> 		<path oryx:anchors="top left" id="_33988015-3F03-4144-86D2-BF522492F9B2frame12" style="opacity:1;fill:none;stroke-width:1.5" d="M 3.8 8.5 L 13.8 8.5" stroke="#000000"/> 		<path oryx:anchors="top left" id="_33988015-3F03-4144-86D2-BF522492F9B2frame13" style="opacity:1;fill:none;stroke-width:1.5" d="M 6.3 12.5 L 16.3 12.5" stroke="#000000"/> 		<path oryx:anchors="top left" id="_33988015-3F03-4144-86D2-BF522492F9B2frame14" style="opacity:1;fill:none;stroke-width:1.5" d="M 6.5 16.5 L 16.5 16.5" stroke="#000000"/> 	</g> 	 	<g id="_33988015-3F03-4144-86D2-BF522492F9B2userTask" transform="scale(0.7,0.7) translate(8,8)" display="none"> 		<path id="_33988015-3F03-4144-86D2-BF522492F9B2frame15" oryx:anchors="top left" style="opacity:1;fill:#F4F6F7" stroke="#000000" d="M0.585,24.167h24.083v-7.833c0,0-2.333-3.917-7.083-5.167h-9.25    c-4.417,1.333-7.833,5.75-7.833,5.75L0.585,24.167z"/> 		<path id="_33988015-3F03-4144-86D2-BF522492F9B2frame16" oryx:anchors="top left" style="opacity:1;fill:none" d="M 6 20 L 6 24" stroke="#000000"/> 		<path id="_33988015-3F03-4144-86D2-BF522492F9B2frame17" oryx:anchors="top left" style="opacity:1;fill:none" d="M 20 20 L 20 24" stroke="#000000"/> 		<circle id="_33988015-3F03-4144-86D2-BF522492F9B2frame18" oryx:anchors="top left" fill="black" cx="13.002" cy="5.916" r="5.417" stroke="#000000"/> 		<path id="_33988015-3F03-4144-86D2-BF522492F9B2frame19" oryx:anchors="top left" style="opacity:1;fill:#F0EFF0;" stroke="#000000" d="M8.043,7.083c0,0,2.814-2.426,5.376-1.807s4.624-0.693,4.624-0.693    c0.25,1.688,0.042,3.75-1.458,5.584c0,0,1.083,0.75,1.083,1.5s0.125,1.875-1,3s-5.5,1.25-6.75,0S8.668,12.834,8.668,12    s0.583-1.25,1.25-1.917C8.835,9.5,7.419,7.708,8.043,7.083z"/> 	</g> 	 	<g id="_33988015-3F03-4144-86D2-BF522492F9B2serviceTask" transform="scale(0.7,0.7) translate(8,8)" display="none"> 		<polygon oryx:anchors="top left" id="_33988015-3F03-4144-86D2-BF522492F9B2frame20" style="opacity:1;fill:#ffffff" stroke="#000000" points="15.392,5.064 17.954,2.502 20.347,4.895 17.786,7.455     18.729,9.732 22.353,9.732 22.353,13.115 18.731,13.115 17.788,15.392 20.351,17.955 17.958,20.347 15.397,17.786 13.12,18.729     13.12,22.353 9.737,22.353 9.737,18.731 7.46,17.788 4.897,20.35 2.506,17.958 5.066,15.397 4.124,13.12 0.5,13.12 0.5,9.737     4.121,9.737 5.065,7.461 2.503,4.898 4.895,2.506 7.455,5.066 9.732,4.125 9.732,0.5 13.116,0.5 13.116,4.121 "/> 		<circle oryx:anchors="top left" id="_33988015-3F03-4144-86D2-BF522492F9B2frame21" style="opacity:1;fill:none" stroke="#000000" cx="11.427" cy="11.426" r="3.714"/> 		<polygon oryx:anchors="top left" id="_33988015-3F03-4144-86D2-BF522492F9B2frame22" style="opacity:1;fill:#ffffff" stroke="#000000" points="21.392,11.064 23.954,8.502 26.347,10.895 23.786,13.455     24.729,15.732 28.353,15.732 28.353,19.115 24.731,19.115 23.788,21.392 26.351,23.955 23.958,26.347 21.397,23.786 19.12,24.729     19.12,28.353 15.737,28.353 15.737,24.731 13.46,23.788 10.897,26.35 8.506,23.958 11.066,21.397 10.124,19.12 6.5,19.12     6.5,15.737 10.121,15.737 11.065,13.461 8.503,10.898 10.895,8.506 13.455,11.066 15.732,10.125 15.732,6.5 19.116,6.5     19.116,10.121 "/> 		<circle oryx:anchors="top left" id="_33988015-3F03-4144-86D2-BF522492F9B2frame23" style="opacity:1;fill:none;" stroke="#000000" cx="17.427" cy="17.426" r="3.714"/> 	</g> 	 	<g id="_33988015-3F03-4144-86D2-BF522492F9B2sendTask" display="none"> 		<path id="_33988015-3F03-4144-86D2-BF522492F9B2stframe24" oryx:anchors="left top" stroke="#FFFFFF" fill="black" stroke-width="1" d="M8,11 L8,21 L24,21 L24,11 L16,17z"/> 		<path id="_33988015-3F03-4144-86D2-BF522492F9B2stframe25" oryx:anchors="left top" stroke="#FFFFFF" fill="black" stroke-width="1" d="M7,10 L16,17 L25 10z"/> 	</g> 	 	<g id="_33988015-3F03-4144-86D2-BF522492F9B2receiveTask" display="none"> 		<path id="_33988015-3F03-4144-86D2-BF522492F9B2frame26" oryx:anchors="left top" stroke="#000000" fill="none" stroke-width="1" d="M8,11 L8,21 L24,21 L24,11z M8,11 L16,17 L24,11"/> 	</g> 	 	<g id="_33988015-3F03-4144-86D2-BF522492F9B2none" display="inherit"/>  	<g id="_33988015-3F03-4144-86D2-BF522492F9B2sequential" display="none">         <path oryx:anchors="bottom" fill="none" stroke="#000000" stroke-width="2" d="M46,76h10M46,72h10 M46,68h10" id="_33988015-3F03-4144-86D2-BF522492F9B2__33988015-3F03-4144-86D2-BF522492F9B2_20"/>     </g>   </g></g><g class="children" style="overflow:hidden"/><g class="edge"/></g><g class="controls"><g class="dockers"/><g class="magnets" transform="translate(340, 140)"><g pointer-events="all" display="none" transform="translate(-7, 12)"><circle cx="8" cy="8" r="4" stroke="none" fill="red" fill-opacity="0.3"/></g><g pointer-events="all" display="none" transform="translate(-7, 32)"><circle cx="8" cy="8" r="4" stroke="none" fill="red" fill-opacity="0.3"/></g><g pointer-events="all" display="none" transform="translate(-7, 52)"><circle cx="8" cy="8" r="4" stroke="none" fill="red" fill-opacity="0.3"/></g><g pointer-events="all" display="none" transform="translate(17, 71)"><circle cx="8" cy="8" r="4" stroke="none" fill="red" fill-opacity="0.3"/></g><g pointer-events="all" display="none" transform="translate(42, 71)"><circle cx="8" cy="8" r="4" stroke="none" fill="red" fill-opacity="0.3"/></g><g pointer-events="all" display="none" transform="translate(67, 71)"><circle cx="8" cy="8" r="4" stroke="none" fill="red" fill-opacity="0.3"/></g><g pointer-events="all" display="none" transform="translate(91, 12)"><circle cx="8" cy="8" r="4" stroke="none" fill="red" fill-opacity="0.3"/></g><g pointer-events="all" display="none" transform="translate(91, 32)"><circle cx="8" cy="8" r="4" stroke="none" fill="red" fill-opacity="0.3"/></g><g pointer-events="all" display="none" transform="translate(91, 52)"><circle cx="8" cy="8" r="4" stroke="none" fill="red" fill-opacity="0.3"/></g><g pointer-events="all" display="none" transform="translate(17, -7)"><circle cx="8" cy="8" r="4" stroke="none" fill="red" fill-opacity="0.3"/></g><g pointer-events="all" display="none" transform="translate(42, -7)"><circle cx="8" cy="8" r="4" stroke="none" fill="red" fill-opacity="0.3"/></g><g pointer-events="all" display="none" transform="translate(67, -7)"><circle cx="8" cy="8" r="4" stroke="none" fill="red" fill-opacity="0.3"/></g><g pointer-events="all" display="none" transform="translate(42, 32)"><circle cx="8" cy="8" r="4" stroke="none" fill="red" fill-opacity="0.3"/></g></g></g></g><g id="_62666545-8E1E-470E-BD60-81EDFF770AB9" bpmn2nodeid="_99478CC9-8F1A-4B00-8510-F4817260ADF2"><g class="stencils" transform="translate(485, 166)"><g class="me"><g pointer-events="fill" id="_62666545-8E1E-470E-BD60-81EDFF770AB9">      <defs id="_62666545-8E1E-470E-BD60-81EDFF770AB9__62666545-8E1E-470E-BD60-81EDFF770AB9_5"> 		<radialGradient id="_62666545-8E1E-470E-BD60-81EDFF770AB9background" cx="10%" cy="10%" r="100%" fx="10%" fy="10%"> 			<stop offset="0%" stop-color="#ffffff" stop-opacity="1" id="_62666545-8E1E-470E-BD60-81EDFF770AB9__62666545-8E1E-470E-BD60-81EDFF770AB9_6"/> 			<stop id="_62666545-8E1E-470E-BD60-81EDFF770AB9fill_el" offset="100%" stop-color="#ff6347" stop-opacity="1"/> 		</radialGradient> 	</defs> 	     <circle id="_62666545-8E1E-470E-BD60-81EDFF770AB9bg_frame" cx="14" cy="14" r="14" stroke="#000000" fill="url(#_62666545-8E1E-470E-BD60-81EDFF770AB9background) white" stroke-width="3"/> 	<text font-size="11" id="_62666545-8E1E-470E-BD60-81EDFF770AB9text_name" x="14" y="30" oryx:align="top center" stroke="black" stroke-width="0pt" letter-spacing="-0.01px" fill="#000000" text-anchor="middle" transform="rotate(0 14 30)" visibility="inherit" oryx:fontSize="11"/>   </g></g><g class="children" style="overflow:hidden"/><g class="edge"/></g><g class="controls"><g class="dockers"/><g class="magnets" transform="translate(485, 166)"><g pointer-events="all" display="none" transform="translate(6, 6)"><circle cx="8" cy="8" r="4" stroke="none" fill="red" fill-opacity="0.3"/></g></g></g></g></g><g class="edge"><g id="_A2F135EE-1D92-4947-B6E8-0F1192689642" bpmn2nodeid="_85703244-C645-455C-AB11-C49874103D55"><g class="stencils"><g class="me"><g pointer-events="painted" bpmn2nodeid="_4BD721B3-A51C-4BF5-B3B6-D51B68DCE696"><path id="_A2F135EE-1D92-4947-B6E8-0F1192689642_1" d="M150.609375 180L194.15625 180 " stroke="#000000" fill="none" stroke-width="2" stroke-linecap="round" stroke-linejoin="round" marker-start="url(#_A2F135EE-1D92-4947-B6E8-0F1192689642start)" marker-end="url(#_A2F135EE-1D92-4947-B6E8-0F1192689642end)"/></g><text id="_A2F135EE-1D92-4947-B6E8-0F1192689642text_name" font-size="12" x="164.609375" y="166" oryx:edgePosition="startTop" stroke-width="0pt" letter-spacing="-0.01px" fill="#000000" text-anchor="start" transform="rotate(360 150.609375 180)" visibility="inherit" oryx:fontSize="12"/></g><g class="children" style="overflow:hidden"/><g class="edge"/></g><g class="controls"><g class="dockers"/><g class="magnets"/></g></g><g id="_B52DB95D-3F59-4F1A-9F87-A25AE6B78EE3" bpmn2nodeid="_2E4E45F9-10C5-474B-B5AC-07CCC5CBDA54"><g class="stencils"><g class="me"><g pointer-events="painted" bpmn2nodeid="_B190CF7D-D63B-4BFF-8287-3B34652E5B1D"><path id="_B52DB95D-3F59-4F1A-9F87-A25AE6B78EE3_1" d="M295.84375 180L339.15625 180 " stroke="#000000" fill="none" stroke-width="2" stroke-linecap="round" stroke-linejoin="round" marker-start="url(#_B52DB95D-3F59-4F1A-9F87-A25AE6B78EE3start)" marker-end="url(#_B52DB95D-3F59-4F1A-9F87-A25AE6B78EE3end)"/></g><text id="_B52DB95D-3F59-4F1A-9F87-A25AE6B78EE3text_name" font-size="12" x="309.84375" y="166" oryx:edgePosition="startTop" stroke-width="0pt" letter-spacing="-0.01px" fill="#000000" text-anchor="start" transform="rotate(360 295.84375 180)" visibility="inherit" oryx:fontSize="12"/></g><g class="children" style="overflow:hidden"/><g class="edge"/></g><g class="controls"><g class="dockers"/><g class="magnets"/></g></g><g id="_07140D21-267C-413E-841C-68DFC42B064D" bpmn2nodeid="_F72CB7F7-0587-4A1F-9C06-C4F01AE50141"><g class="stencils"><g class="me"><g pointer-events="painted" bpmn2nodeid="_8AE87FC8-CEB5-4E75-BF1A-6C77212E4007"><path id="_07140D21-267C-413E-841C-68DFC42B064D_1" d="M440.390625 180L484.375 180 " stroke="#000000" fill="none" stroke-width="2" stroke-linecap="round" stroke-linejoin="round" marker-start="url(#_07140D21-267C-413E-841C-68DFC42B064Dstart)" marker-end="url(#_07140D21-267C-413E-841C-68DFC42B064Dend)"/></g><text id="_07140D21-267C-413E-841C-68DFC42B064Dtext_name" font-size="12" x="454.390625" y="166" oryx:edgePosition="startTop" stroke-width="0pt" letter-spacing="-0.01px" fill="#000000" text-anchor="start" transform="rotate(360 440.390625 180)" visibility="inherit" oryx:fontSize="12"/></g><g class="children" style="overflow:hidden"/><g class="edge"/></g><g class="controls"><g class="dockers"/><g class="magnets"/></g></g></g><text id="_1CD2B395-9605-45EE-B471-82BB707F502F" style="stroke-width:1;fill:rgb(177,194,214);font-family:arial;font-weight:bold" font-size="12" onclick="ORYX.Plugins.CanvasTitle.openTextualAnalysis()" onmouseover="ORYX.Plugins.CanvasTitle.addToolTip('_1CD2B395-9605-45EE-B471-82BB707F502F')" transform="translate(10, 20)">HelloWorldWithError v.1.0 (com.myspace.extensiondemo.HelloWorldWithError)</text></g></g></svg>